<svg width="17" height="17" viewBox="0 0 17 17" fill="none" xmlns="http://www.w3.org/2000/svg">
<path fill-rule="evenodd" clip-rule="evenodd" d="M4.5769 9.80767C3.49358 9.80767 2.61537 10.6859 2.61537 11.7692C2.61537 12.8525 3.49358 13.7307 4.5769 13.7307C5.66023 13.7307 6.53843 12.8525 6.53843 11.7692C6.53843 10.6859 5.66023 9.80767 4.5769 9.80767ZM1.30769 11.7692C1.30769 9.96366 2.77136 8.49998 4.5769 8.49998C6.38244 8.49998 7.84612 9.96366 7.84612 11.7692C7.84612 13.5747 6.38244 15.0384 4.5769 15.0384C2.77136 15.0384 1.30769 13.5747 1.30769 11.7692Z" fill="#359F64"/>
<path fill-rule="evenodd" clip-rule="evenodd" d="M4.5769 15.0384C3.91711 15.0384 3.26642 15.192 2.67629 15.4871C2.08616 15.7822 1.57283 16.2106 1.17696 16.7384C0.960292 17.0273 0.550462 17.0859 0.261576 16.8692C-0.0273103 16.6525 -0.0858575 16.2427 0.130807 15.9538C0.648487 15.2636 1.31976 14.7033 2.09148 14.3175C2.86319 13.9316 3.7141 13.7307 4.5769 13.7307C5.4397 13.7307 6.29069 13.9316 7.0624 14.3175C7.83412 14.7033 8.50539 15.2636 9.02307 15.9538C9.23974 16.2427 9.18119 16.6525 8.89231 16.8692C8.60342 17.0859 8.19359 17.0273 7.97693 16.7384C7.58105 16.2106 7.06772 15.7822 6.47759 15.4871C5.88746 15.192 5.23669 15.0384 4.5769 15.0384Z" fill="#359F64"/>
<path fill-rule="evenodd" clip-rule="evenodd" d="M4.5769 1.30769C3.49358 1.30769 2.61537 2.1859 2.61537 3.26922C2.61537 4.35255 3.49358 5.23076 4.5769 5.23076C5.66023 5.23076 6.53843 4.35255 6.53843 3.26922C6.53843 2.1859 5.66023 1.30769 4.5769 1.30769ZM1.30769 3.26922C1.30769 1.46368 2.77136 0 4.5769 0C6.38244 0 7.84612 1.46368 7.84612 3.26922C7.84612 5.07477 6.38244 6.53845 4.5769 6.53845C2.77136 6.53845 1.30769 5.07477 1.30769 3.26922Z" fill="#359F64"/>
<path fill-rule="evenodd" clip-rule="evenodd" d="M4.5769 6.53845C3.91711 6.53845 3.26642 6.69206 2.67629 6.98713C2.08616 7.2822 1.57283 7.71061 1.17696 8.23844C0.960292 8.52733 0.550462 8.58588 0.261576 8.36921C-0.0273103 8.15255 -0.0858575 7.74272 0.130807 7.45383C0.648487 6.76359 1.31976 6.20335 2.09148 5.8175C2.86319 5.43164 3.7141 5.23076 4.5769 5.23076C5.4397 5.23076 6.29069 5.43164 7.0624 5.8175C7.83412 6.20335 8.50539 6.76359 9.02307 7.45383C9.23974 7.74272 9.18119 8.15255 8.89231 8.36921C8.60342 8.58588 8.19359 8.52733 7.97693 8.23844C7.58105 7.71061 7.06772 7.2822 6.47759 6.98713C5.88746 6.69206 5.23669 6.53845 4.5769 6.53845Z" fill="#359F64"/>
<path fill-rule="evenodd" clip-rule="evenodd" d="M12.423 9.80767C11.3397 9.80767 10.4615 10.6859 10.4615 11.7692C10.4615 12.8525 11.3397 13.7307 12.423 13.7307C13.5063 13.7307 14.3846 12.8525 14.3846 11.7692C14.3846 10.6859 13.5063 9.80767 12.423 9.80767ZM9.1538 11.7692C9.1538 9.96366 10.6175 8.49998 12.423 8.49998C14.2286 8.49998 15.6922 9.96366 15.6922 11.7692C15.6922 13.5747 14.2286 15.0384 12.423 15.0384C10.6175 15.0384 9.1538 13.5747 9.1538 11.7692Z" fill="#359F64"/>
<path fill-rule="evenodd" clip-rule="evenodd" d="M12.423 15.0384C11.7632 15.0384 11.1125 15.192 10.5224 15.4871C9.93228 15.7822 9.41895 16.2106 9.02307 16.7384C8.80641 17.0273 8.39658 17.0859 8.10769 16.8692C7.81881 16.6525 7.76026 16.2427 7.97693 15.9538C8.49461 15.2636 9.16588 14.7033 9.93759 14.3175C10.7093 13.9316 11.5602 13.7307 12.423 13.7307C13.2858 13.7307 14.1368 13.9316 14.9085 14.3175C15.6802 14.7033 16.3515 15.2636 16.8692 15.9538C17.0859 16.2427 17.0273 16.6525 16.7384 16.8692C16.4495 17.0859 16.0397 17.0273 15.823 16.7384C15.4272 16.2106 14.9138 15.7822 14.3237 15.4871C13.7336 15.192 13.0828 15.0384 12.423 15.0384Z" fill="#359F64"/>
<path fill-rule="evenodd" clip-rule="evenodd" d="M12.423 1.30769C11.3397 1.30769 10.4615 2.1859 10.4615 3.26922C10.4615 4.35255 11.3397 5.23076 12.423 5.23076C13.5063 5.23076 14.3846 4.35255 14.3846 3.26922C14.3846 2.1859 13.5063 1.30769 12.423 1.30769ZM9.1538 3.26922C9.1538 1.46368 10.6175 0 12.423 0C14.2286 0 15.6922 1.46368 15.6922 3.26922C15.6922 5.07477 14.2286 6.53845 12.423 6.53845C10.6175 6.53845 9.1538 5.07477 9.1538 3.26922Z" fill="#359F64"/>
<path fill-rule="evenodd" clip-rule="evenodd" d="M12.423 6.53845C11.7632 6.53845 11.1125 6.69206 10.5224 6.98713C9.93228 7.2822 9.41895 7.71061 9.02307 8.23844C8.80641 8.52733 8.39658 8.58588 8.10769 8.36921C7.81881 8.15255 7.76026 7.74272 7.97693 7.45383C8.49461 6.76359 9.16588 6.20335 9.93759 5.8175C10.7093 5.43164 11.5602 5.23076 12.423 5.23076C13.2858 5.23076 14.1368 5.43164 14.9085 5.8175C15.6802 6.20335 16.3515 6.76359 16.8692 7.45383C17.0859 7.74272 17.0273 8.15255 16.7384 8.36921C16.4495 8.58588 16.0397 8.52733 15.823 8.23844C15.4272 7.71061 14.9138 7.2822 14.3237 6.98713C13.7336 6.69206 13.0828 6.53845 12.423 6.53845Z" fill="#359F64"/>
</svg>
