<svg width="166" height="174" viewBox="0 0 166 174" fill="none" xmlns="http://www.w3.org/2000/svg">
<g clip-path="url(#clip0_77_497)">
<path d="M21.7459 109.49C26.0654 109.342 29.938 108.38 33.9595 107.271C34.7787 107.049 34.4808 106.013 33.5871 106.235C29.6401 107.123 25.842 107.715 21.7459 107.641C20.182 107.641 20.182 109.564 21.7459 109.49Z" fill="#359F64"/>
<path d="M29.2678 144.038C33.4383 142.854 36.9385 140.931 41.0345 139.599C41.109 139.599 41.109 139.525 41.0345 139.525C36.864 140.413 32.8425 141.375 28.7465 142.411C27.3315 142.707 27.9273 144.408 29.2678 144.038Z" fill="#359F64"/>
<path d="M32.2468 154.026C31.4276 154.47 30.4594 155.062 30.1615 155.876C29.8636 156.689 30.9807 156.837 31.651 156.468C31.5765 156.615 31.8744 156.394 32.0978 156.32C32.4702 156.172 32.8426 155.95 33.1404 155.728C34.1086 155.21 34.9278 154.544 35.8215 153.952C37.4599 152.769 39.1727 151.585 41.109 150.623C41.258 150.549 41.1835 150.253 40.9601 150.327C38.0557 151.215 34.7788 152.547 32.2468 154.026Z" fill="#359F64"/>
<path d="M162.723 103.276C158.255 97.5793 149.914 95.8778 141.498 95.5818C142.392 94.99 143.211 94.2502 143.658 93.3624C143.956 92.8446 143.137 92.4007 142.764 92.9186C141.647 94.3242 139.488 94.842 137.626 95.5818C136.509 95.5818 135.466 95.5818 134.423 95.6558C134.572 94.842 134.647 94.0283 134.721 93.2145C135.838 93.2885 137.03 92.6227 137.03 91.365C137.03 91.365 137.03 91.365 137.03 91.291C137.998 90.7732 138.892 89.9594 139.488 89.3676C140.754 88.1099 141.573 86.6303 141.498 84.9288C141.498 84.5589 140.828 84.5589 140.754 84.9288C140.605 86.5563 139.488 87.74 138.147 88.8497C137.775 89.1456 137.402 89.3676 136.956 89.5155C136.956 87.2961 136.881 85.0767 136.807 82.9313C139.115 80.7119 140.828 77.9747 141.573 75.0895C141.722 74.4977 140.754 74.2757 140.53 74.8676C139.711 76.939 138.147 78.4926 136.732 80.1941C136.658 78.3446 136.583 76.4951 136.434 74.5716C139.488 72.2783 140.754 67.0997 141.424 64.0665C141.498 63.6966 140.903 63.5487 140.754 63.9186C140.009 65.916 139.041 67.9135 137.849 69.763C137.402 70.5028 136.807 71.1686 136.285 71.8344C136.062 69.2451 135.838 66.6558 135.541 64.1405C139.115 62.0691 140.605 56.4466 141.126 53.1176C141.126 53.0436 141.052 53.0436 141.052 53.1176C140.158 55.115 139.19 57.1125 137.998 58.9619C137.253 60.1456 136.211 61.1813 135.317 62.365C135.019 59.9237 134.721 57.5563 134.274 55.115C135.541 54.0053 136.732 52.7477 137.849 51.564C138.966 50.3063 140.009 49.0487 141.052 47.717C142.094 52.3778 142.467 57.1864 142.392 62.365C142.243 72.2783 141.052 82.4874 145.52 91.8829C146.488 93.8803 150.212 92.9926 149.318 90.9951C144.179 80.1941 146.563 68.0614 146.339 56.7426C146.116 45.7936 142.094 36.6201 135.317 27.4466C123.625 11.689 103.517 -2.1452 80.654 0.518064C60.6953 2.81143 41.1834 8.43388 30.7572 24.5614C26.3633 31.3676 23.5334 39.3573 21.5226 47.2732C21.0758 47.0512 20.4055 47.3471 20.5544 47.865C20.7034 48.3089 20.8523 48.7528 21.0013 49.1966C20.2565 52.2298 19.6608 55.263 19.065 58.2221C16.9053 69.689 16.6819 82.4135 20.1076 93.7324C20.2565 94.2502 20.4055 94.7681 20.6289 95.2859C20.7779 95.8038 21.6715 95.6558 21.6715 95.138C21.5971 93.4364 21.5226 91.8089 21.4481 90.1074C23.2355 91.217 25.2462 91.8829 27.3315 92.1048C28.4486 93.4364 30.0125 94.6201 31.2785 95.5079C31.4275 95.6558 31.6509 95.6558 31.8743 95.5818C31.8743 95.6558 31.8743 95.7298 31.8743 95.7298C21.3736 95.3599 9.16009 96.0997 3.35121 103.424C-2.83004 111.192 1.48939 123.62 2.75543 131.906C4.4683 143.373 4.91514 156.541 12.8837 166.75C17.2776 172.299 23.7568 174.222 30.6828 174.074C31.2041 174.222 31.8743 174.148 32.3956 174C38.13 173.63 44.0134 172.077 49.301 170.079C51.5351 169.266 49.5989 166.75 47.3647 167.564C47.2902 167.564 47.2902 167.638 47.2157 167.638C47.3647 167.49 47.4391 167.268 47.5136 167.046C47.9605 164.383 49.2265 161.276 48.3328 158.538C48.4818 148.847 46.5455 139.304 43.8644 129.834C40.5132 117.924 37.9811 106.235 36.4172 94.1022C36.4172 94.0283 36.2682 93.9543 36.1937 94.1022C36.0448 94.6941 35.9703 95.2859 35.8959 95.8778C34.7788 95.8038 33.6617 95.7298 32.4701 95.7298C36.1193 89.0716 37.3108 81.8956 38.279 74.5716C38.4279 74.4977 38.6513 74.3497 38.8003 74.2757C39.9919 73.6839 39.6195 72.4262 38.5769 72.0563C38.9492 69.1711 39.2471 66.2119 39.694 63.3267C40.1408 62.9568 40.6621 62.5869 41.109 62.217C42.0771 61.4772 41.2579 60.3676 40.2153 60.2196C41.2579 54.967 42.7474 49.7885 45.7263 44.9058C47.8115 41.5028 50.567 38.0997 53.8438 35.0665C54.4396 35.3625 55.3333 35.5104 57.0461 35.3624C57.4185 35.3624 57.7164 34.9186 57.344 34.6966C56.7482 34.3267 56.2269 33.8829 55.6312 33.439C60.6208 29.2221 66.5042 25.8931 72.9089 24.5614C73.2812 25.0793 74.026 25.2272 74.6962 24.7834C74.9941 24.5614 75.292 24.3395 75.6644 24.1176C79.7604 23.5997 84.0053 23.9696 88.2503 25.3752C88.995 25.6711 89.6653 25.3012 89.9632 24.7834C90.6334 25.3012 91.9739 24.7834 91.8994 23.8216C93.1655 23.5997 94.4315 23.3778 95.4741 22.7859C98.2296 21.3803 98.6765 21.3803 98.602 24.4874C96.7402 24.1176 94.8783 23.9696 92.8676 23.8956C92.7931 23.8956 92.7931 23.9696 92.8676 23.9696C96.4423 24.5614 99.6446 25.5232 102.549 26.7808C102.475 27.0767 102.475 27.3727 102.475 27.5946C102.475 28.2604 103.294 28.4823 103.89 28.2604C104.262 28.1125 104.56 27.9645 104.932 27.8165C107.017 28.8522 108.879 30.1099 110.667 31.4415C110.443 31.8114 110.22 32.1813 109.996 32.5512C109.549 33.365 110.443 34.0308 111.337 33.7349C111.858 33.513 112.379 33.365 112.901 33.217C113.72 33.9568 114.465 34.6966 115.209 35.4364C115.135 35.8063 115.06 36.1762 115.06 36.5461C114.986 37.3599 116.178 37.5818 116.773 37.138C120.944 42.0206 123.997 47.791 126.231 53.7834C127.2 56.3727 127.944 58.9619 128.615 61.6252C128.317 62.291 127.944 62.8829 127.646 63.5487C127.2 64.4364 128.54 64.9543 129.285 64.5104C130.178 68.5793 130.774 72.7222 131.221 76.865C131.891 83.0793 131.221 89.3675 131.519 95.5818C131.072 95.5818 130.7 95.6558 130.327 95.6558C130.253 95.064 130.104 94.4722 130.03 93.8803C130.03 93.8063 129.806 93.8063 129.806 93.8803C128.317 106.013 125.71 117.702 122.359 129.612C119.752 139.082 117.742 148.625 117.89 158.317C116.997 160.98 118.263 164.161 118.71 166.824C118.784 167.046 118.859 167.268 119.008 167.416C118.933 167.416 118.933 167.342 118.859 167.342C116.624 166.528 114.688 169.044 116.922 169.857C122.21 171.781 128.093 173.408 133.828 173.778C134.349 173.926 135.019 174 135.541 173.852C142.467 174 149.02 172.077 153.34 166.528C161.308 156.319 161.829 143.151 163.468 131.684C164.585 123.472 168.904 111.044 162.723 103.276ZM43.9389 157.577C43.9389 157.651 43.9389 157.725 43.9389 157.725C43.9389 157.799 43.9389 157.799 43.9389 157.873C43.9389 159.648 43.8644 161.424 43.7155 163.199C43.641 163.717 43.8644 164.087 44.2368 164.309C44.2368 164.901 44.2368 165.567 44.2368 166.158C42.0771 167.12 39.7684 167.86 37.2364 168.156C36.4916 168.23 36.7151 169.044 37.3853 169.044C39.7684 169.118 42.0771 168.822 44.3858 168.378C40.8111 169.561 37.0129 170.597 33.1404 171.041C32.768 170.375 32.4701 169.783 32.1722 169.118C32.4701 168.748 32.8425 168.452 33.1404 168.23C34.7788 167.046 36.7895 166.01 38.7258 165.197C38.9492 165.123 38.8003 164.901 38.5769 164.901C35.9703 165.197 33.9596 165.862 31.8743 166.972C31.7254 167.046 31.502 167.194 31.2785 167.268C30.4593 165.493 29.7146 163.643 29.1188 161.794H29.1933C33.3638 161.276 37.6832 159.648 41.1834 157.799C41.4068 157.651 41.1834 157.429 40.96 157.503C37.0874 159.278 32.9914 159.722 28.8954 160.832H28.8209C27.7038 157.577 26.8846 154.322 26.1399 150.993C26.2889 151.067 26.4378 151.067 26.5867 151.141C28.4486 151.288 30.3849 150.179 31.9488 149.513C34.183 148.625 36.4916 147.737 38.8003 146.998C39.2471 146.85 38.9492 146.332 38.5024 146.406C36.2682 146.85 34.1085 147.442 31.9488 147.959C30.0125 148.477 27.3315 148.699 25.842 149.809C24.9483 145.444 24.3526 141.005 23.9057 136.567C26.3633 137.158 29.3422 136.123 31.6509 135.457C34.2574 134.717 36.6406 133.681 38.8748 132.498C39.4705 132.128 38.9492 131.388 38.279 131.684C35.9703 132.646 33.5872 133.385 31.0551 133.977C28.672 134.495 26.0654 134.347 23.8312 134.939C23.7568 134.939 23.7568 135.013 23.6823 135.013C23.5334 133.533 23.3844 132.054 23.2355 130.5C23.3844 130.87 23.8312 131.166 24.427 131.018C29.4912 129.982 34.2575 128.947 38.6513 126.727C38.7258 126.653 38.6513 126.579 38.5769 126.579C33.7361 127.763 28.8209 128.725 23.9057 129.538C23.4589 129.612 23.2355 129.834 23.2355 130.056C23.0865 128.355 22.8631 126.653 22.7142 124.952C26.8846 124.138 31.0551 123.324 35.2256 122.436C35.9703 122.288 35.6724 121.401 34.9277 121.549C30.8317 122.214 26.7357 122.732 22.5652 123.398C22.4163 122.288 22.3418 121.253 22.1928 120.217C27.1081 120.069 31.7998 119.181 36.4172 117.85C36.9385 117.702 36.864 117.036 36.2682 117.11C31.502 117.554 26.8102 118.368 21.9694 118.368C21.8205 117.184 21.6715 116 21.4481 114.817C21.6715 114.891 21.895 114.891 22.1184 114.817C24.5015 114.299 26.8846 113.781 29.2678 113.115C31.6509 112.523 33.8106 111.339 35.9703 110.378C36.715 115.556 37.9066 120.735 39.0237 125.839C41.2579 136.493 43.8644 146.998 43.9389 157.577ZM35.8214 95.8778C35.7469 96.4696 35.6724 97.1354 35.598 97.7272C33.3638 98.467 31.0551 98.9849 28.7465 99.5028C26.4378 100.095 23.8312 99.9466 21.5971 100.612C20.8523 100.834 20.7779 101.574 21.5971 101.796C23.9802 102.388 27.0336 101.5 29.2678 100.908C31.6509 100.317 33.6617 99.2808 35.5235 98.0971C35.1511 102.166 35.3745 106.235 35.9703 110.378C31.353 111.635 26.2144 112.227 21.4481 113.041C21.3736 113.041 21.2247 113.115 21.1502 113.115C20.4055 108.454 19.3629 103.794 17.9479 99.2068C17.65 98.2451 15.7882 98.689 16.0116 99.6507C17.7989 107.788 18.3203 116 18.7671 124.286C18.0224 124.582 18.1713 125.396 18.8416 125.766C19.065 130.204 19.3629 134.569 19.8097 139.008C20.9268 149.883 22.2673 161.202 28.2251 171.263C27.257 171.189 26.2889 171.041 25.3207 170.893C19.7352 169.857 16.384 166.01 14.0753 162.311C7.96853 152.472 7.67064 140.339 6.03223 129.76C4.91514 122.214 2.30859 113.337 5.65987 105.939C9.08562 98.3931 21.8205 96.9135 31.7254 96.2477C31.7254 96.3956 31.6509 96.6176 31.6509 96.7655C31.6509 96.8395 31.7998 96.9135 31.7998 96.8395C31.9488 96.6175 32.0233 96.3956 32.1722 96.1737C33.3638 96.0257 34.6298 95.9517 35.8214 95.8778ZM124.221 43.9441C125.263 44.092 126.231 44.314 127.274 44.5359C126.976 45.4977 126.455 46.3854 126.008 47.3471C125.412 46.1635 124.816 45.0538 124.221 43.9441ZM121.465 39.6533C122.582 39.2094 123.774 38.8395 124.965 38.5436C124.519 39.7272 123.699 40.8369 122.88 41.7987C122.433 41.1329 121.986 40.3931 121.465 39.6533ZM118.561 36.1022C119.529 35.6584 120.571 35.2885 121.614 34.9186C121.018 35.8063 120.423 36.7681 119.827 37.6558C119.454 37.138 119.008 36.6201 118.561 36.1022ZM123.625 35.5104C123.923 35.9543 124.146 36.4721 124.37 36.916C123.625 37.064 122.955 37.2859 122.284 37.5079C122.731 36.7681 123.178 36.1022 123.625 35.5104ZM128.242 47.2732C128.317 47.5691 128.391 47.865 128.466 48.0869C128.242 48.0869 128.093 48.0869 127.87 48.1609C127.944 47.865 128.093 47.5691 128.242 47.2732ZM126.157 40.689C126.38 41.2808 126.604 41.9466 126.827 42.5385C126.231 42.3905 125.636 42.3165 125.114 42.2426C125.487 41.7987 125.785 41.2808 126.157 40.689ZM128.093 52.1558C128.019 51.8599 127.87 51.638 127.795 51.342C127.646 50.8982 127.423 50.5283 127.274 50.0844C129.136 50.0104 128.615 51.0461 128.093 52.1558ZM129.136 55.189C129.285 55.263 129.508 55.3369 129.657 55.4109C129.508 55.4849 129.434 55.6329 129.285 55.7068C129.285 55.5589 129.21 55.4109 129.136 55.189ZM130.253 57.4823C130.327 57.7043 130.327 58.0002 130.402 58.2221C130.327 58.0742 130.178 57.9262 130.03 57.7043V57.6303C130.03 57.6303 130.104 57.5563 130.253 57.4823ZM136.807 50.4543C135.913 51.2681 134.945 52.0079 133.977 52.7477C133.604 50.5283 133.083 48.3089 132.487 46.0895C132.636 46.1635 132.86 46.0895 133.008 46.0155C134.945 44.6839 135.987 42.3165 137.03 40.467C137.328 39.8752 137.626 39.2834 137.924 38.6176C139.115 41.1329 140.083 43.7221 140.754 46.3114C139.562 47.717 138.222 49.1227 136.807 50.4543ZM137.477 37.5818C136.956 38.6176 136.36 39.6533 135.764 40.615C134.721 42.2426 133.157 43.5742 132.338 45.2757C131.37 41.7987 130.178 38.3956 128.466 35.1405C128.54 35.1405 128.615 35.1405 128.763 35.0665C130.774 34.0308 132.115 31.9594 132.711 29.9619C133.232 30.7017 133.753 31.3676 134.2 32.1073C135.466 33.9568 136.583 35.8063 137.477 37.5818ZM81.1009 3.55123C102.475 1.03592 120.423 14.1303 131.668 28.7043C131.593 29.0002 131.519 29.3701 131.445 29.74C130.849 31.6635 129.061 32.8471 128.019 34.4747C127.125 32.7732 126.008 31.0716 124.816 29.4441C123.774 28.0385 122.582 26.7808 121.242 25.5971C121.838 22.342 120.646 18.3471 118.039 16.3497C117.816 16.2017 117.444 16.4237 117.593 16.6456C119.38 18.939 119.305 21.4543 119.231 24.0436C116.029 21.6762 112.305 19.8267 108.358 18.4951C107.911 16.4237 107.092 14.4262 105.751 12.6507C105.305 12.0589 104.262 12.5767 104.709 13.1686C105.677 14.6482 106.273 16.2017 106.571 17.9033C104.262 17.1635 101.804 16.6456 99.3467 16.1278C99.2722 12.5767 99.1233 9.0997 99.0488 5.54868C99.0488 5.32674 98.6765 5.32674 98.6765 5.54868C98.602 9.02572 98.453 12.5028 98.3786 15.9058C95.772 15.4619 93.1655 15.092 90.5589 14.7961C89.8142 11.1711 89.4418 7.25021 90.5589 3.69919C90.6334 3.47725 90.261 3.40327 90.1866 3.62521C88.9205 7.10225 88.995 11.0232 89.5163 14.6482C86.4629 14.3522 83.4095 14.1303 80.5051 13.9824C78.3454 13.8344 76.1857 13.8344 74.026 13.8344C74.1749 10.7272 73.877 7.54613 73.7281 4.365C76.4091 4.14306 78.7922 3.84715 81.1009 3.55123ZM73.877 20.4926C73.5791 19.9007 73.1323 19.3089 72.6854 18.717C72.3131 18.3471 71.6428 17.9772 71.1215 18.3471C69.6321 19.3089 69.0363 20.7885 67.9937 21.9721C67.3979 20.8625 66.5787 19.6788 66.5787 18.6431C70.9726 18.0512 75.5154 17.9772 79.9093 18.1252C79.1646 18.865 78.3454 19.4568 77.5262 20.0487C76.1857 20.1227 74.9941 20.2706 73.877 20.4926ZM43.4921 35.8063C42.4495 36.0283 41.4068 36.3242 40.2897 36.6201C40.8855 35.5104 41.6303 34.4747 42.375 33.365C42.5984 34.2528 42.9708 34.9926 43.4921 35.8063ZM33.6617 82.7094C33.2148 82.5614 32.6935 82.4135 32.0977 82.4135C32.2467 81.8216 32.4701 81.2298 32.619 80.564C33.1404 79.8982 33.6617 79.1584 34.1085 78.4926C34.034 79.8242 33.8106 81.2298 33.6617 82.7094ZM27.7783 39.3573C28.672 41.0589 29.5657 42.8344 30.4593 44.5359C30.8317 45.3497 31.2041 46.1635 31.4275 47.0512C30.5338 50.9721 30.1614 55.041 30.0125 59.0359C27.4804 57.1864 25.5441 54.8191 24.0547 52.2298C25.0228 47.939 26.2889 43.5742 27.7783 39.3573ZM36.7895 47.4211C38.279 48.1609 36.9385 48.013 35.8214 48.6048C35.8959 48.0869 36.0448 47.5691 36.1937 47.0512C36.4172 47.1992 36.5661 47.2732 36.7895 47.4211ZM34.2574 64.3625C34.2574 63.7706 34.3319 63.1048 34.3319 62.513C34.5553 62.291 34.6298 61.8471 34.4064 61.6252C34.4064 61.4033 34.4064 61.1074 34.4809 60.8854C35.0766 61.1074 35.6724 61.3293 36.2682 61.4772C36.1937 61.8471 36.1193 62.291 36.0448 62.6609C35.3745 63.1788 34.7788 63.7706 34.2574 64.3625ZM34.4809 73.6839C34.183 73.9058 33.8851 74.2017 33.5872 74.4977C33.5872 74.2017 33.6617 73.9058 33.6617 73.5359C33.9596 73.6099 34.183 73.6839 34.4809 73.6839ZM34.5553 71.1686C34.7788 70.5028 35.0022 69.763 35.2256 69.0972C35.1511 69.8369 35.0766 70.5028 35.0022 71.2426C34.7788 71.2426 34.6298 71.1686 34.5553 71.1686ZM36.3427 59.1099C36.4916 58.9619 36.6406 58.888 36.7895 58.74C36.7895 58.888 36.715 59.0359 36.715 59.1839C36.5661 59.1839 36.4172 59.1099 36.3427 59.1099ZM37.8321 54.3752C36.7895 55.4109 35.8214 56.3727 34.7043 57.2604C34.8532 55.7068 35.0022 54.1533 35.2256 52.5257C36.1937 52.9696 37.0874 53.4135 37.9811 53.9313C37.9066 54.0793 37.9066 54.2272 37.8321 54.3752ZM36.864 50.8242C37.9066 49.9364 39.1727 49.1966 40.0663 48.1609C39.545 49.3446 39.0982 50.5283 38.6513 51.7119C38.0556 51.342 37.4598 51.0461 36.864 50.8242ZM40.2897 47.6431C40.2897 47.4211 40.2153 47.1992 40.1408 46.9772C39.694 46.1635 39.0237 45.9415 38.13 45.5716C36.864 44.9798 41.7047 42.9084 43.1942 42.3165C42.0771 44.0181 41.1089 45.7936 40.2897 47.6431ZM37.5343 42.6124C37.6087 42.3165 37.7577 42.0206 37.8321 41.7247C38.0556 41.2068 38.279 40.689 38.5024 40.1711C39.1727 40.467 39.8429 40.763 40.5132 41.0589C39.545 41.5767 38.5024 42.0946 37.5343 42.6124ZM45.8752 29.1482C45.9497 29.2221 46.0242 29.2221 46.0986 29.2961C46.471 29.4441 46.9178 29.592 47.2902 29.74C46.5455 29.814 45.8752 29.9619 45.1305 30.0359C45.4284 29.666 45.6518 29.3701 45.8752 29.1482ZM45.7263 23.1558C44.6092 20.9364 43.7155 18.6431 42.8963 16.2757C45.1305 14.5742 47.5136 13.0946 50.0457 11.8369C49.5244 14.2043 49.6733 17.3114 51.1628 19.3089C49.152 20.4186 47.3647 21.7502 45.7263 23.1558ZM64.1211 19.013C63.8976 20.4186 62.9295 22.1201 62.0358 23.5997C61.2911 22.638 60.5464 21.6022 59.8761 20.6405C59.7272 20.4926 59.5782 20.3446 59.3548 20.2706C60.9187 19.7528 62.5571 19.3089 64.1211 19.013ZM61.7379 15.388C62.0358 12.7987 61.6635 9.98745 61.5145 7.32419C65.3871 6.21449 69.4086 5.32674 73.5046 4.66092C73.3557 7.76806 73.0578 10.9492 73.2068 14.0563C69.3342 14.1303 65.4616 14.5742 61.7379 15.388ZM60.5464 15.6839C58.3867 16.2017 56.2269 16.9415 54.1417 17.8293C53.5459 18.0512 53.0246 18.3471 52.5033 18.5691C52.0565 17.9033 51.6096 17.2375 51.3117 16.5716C50.567 14.8701 50.567 13.0946 50.9394 11.3191C53.9928 9.83949 57.2696 8.58184 60.6953 7.54613C60.5464 10.2834 60.2485 13.0946 60.5464 15.6839ZM55.6312 21.8242C56.4504 21.4543 57.2696 21.0844 58.0888 20.7145C58.0143 20.7885 58.0143 20.9364 58.0143 21.0104C57.9398 23.1558 57.5675 25.2272 57.344 27.3727C56.078 25.8931 54.7375 24.4875 53.6949 22.8599C54.3651 22.49 55.0354 22.1201 55.6312 21.8242ZM59.6527 23.7477C60.0251 24.3395 60.4719 25.0053 60.9187 25.5971C60.3229 25.967 59.7272 26.3369 59.1314 26.7068C59.2059 25.7451 59.4293 24.7834 59.6527 23.7477ZM65.536 21.9721C65.685 22.2681 65.9084 22.638 65.9829 22.9339C65.536 23.1558 65.0892 23.3038 64.6424 23.5257C64.9403 23.0818 65.2382 22.564 65.536 21.9721ZM71.5683 21.0104C71.4194 21.0844 71.2705 21.0844 71.1215 21.1584C71.196 21.0104 71.3449 20.9364 71.4194 20.7885C71.4939 20.8625 71.4939 20.9364 71.5683 21.0104ZM83.5585 20.1966C83.3351 19.5308 83.1116 18.791 82.6648 18.1992C83.5585 18.2732 84.5266 18.2732 85.4948 18.3471C84.899 19.013 84.2287 19.6788 83.5585 20.1966ZM42.5239 16.5716C43.0452 19.0869 43.4921 21.8242 44.7581 24.1176C41.8537 26.8548 39.4705 29.9619 37.3853 33.217C36.9385 32.4772 36.5661 31.7375 36.1937 30.9977C35.449 29.2961 34.7788 27.5206 34.183 25.7451C36.4172 22.1201 39.2471 19.0869 42.5239 16.5716ZM32.768 28.0385C33.0659 27.5206 33.2893 27.0028 33.5872 26.5589C34.1085 29.2961 34.6298 32.5512 36.0448 35.1405C35.8214 35.5104 35.598 35.8803 35.3745 36.2502C33.8106 38.9135 32.768 41.7247 31.9488 44.6099C30.6828 42.6124 29.1188 40.615 27.9273 38.8395C29.3422 35.1405 30.9062 31.5155 32.768 28.0385ZM21.3736 89.2936C21.0758 82.2655 20.9268 75.3114 21.4481 68.3574C22.7142 70.4288 24.427 72.1303 27.257 73.24C27.6294 73.388 27.8528 72.9441 27.4804 72.7961C24.8739 71.8344 22.8631 70.1329 21.4481 68.0614C21.6715 65.4721 21.9694 62.8829 22.3418 60.2936C22.6397 58.2221 23.0865 56.1507 23.5334 54.0793C25.1718 56.5946 27.257 58.888 29.8635 60.6635C29.7891 62.8829 29.7146 65.1022 29.6401 67.2477C29.4912 72.0563 29.1188 76.865 28.2251 81.6737C26.4378 80.8599 25.1718 79.5283 24.1291 78.0487C23.4589 77.013 21.746 77.9007 22.2673 79.0104C23.3844 81.0818 24.9483 82.7834 27.1825 84.041C27.3315 84.115 27.4804 84.189 27.6294 84.263C27.257 85.8165 25.4697 88.4058 25.991 89.8854C26.0654 90.0334 26.1399 90.2553 26.2144 90.4033C24.576 90.1813 23.012 89.9594 21.3736 89.2936ZM30.2359 92.0308C30.7572 92.0308 31.353 91.9568 31.8743 91.8829C32.5446 91.8089 32.5446 90.7732 31.8743 90.6992C31.0551 90.5512 30.2359 90.5512 29.4167 90.4772C29.1933 89.8854 29.1933 89.3676 29.4167 88.9237C30.087 87.74 30.6083 86.5563 31.1296 85.2987C31.9488 85.4466 32.6935 85.4466 33.4382 85.2987C33.0659 88.3318 32.619 91.365 32.0977 94.3982C31.5764 93.8063 30.8317 92.9186 30.2359 92.0308ZM45.8752 38.6176C45.3539 39.2834 44.8326 39.9492 44.3113 40.615C44.2368 40.467 44.0879 40.3191 43.8644 40.2451C42.6729 39.7272 41.5558 39.2094 40.3642 38.7655C42.0026 38.3216 43.641 37.8038 45.3539 37.6558C46.1731 37.5818 46.8434 36.842 46.3221 36.1762C45.205 34.7706 44.6092 33.6609 44.3858 32.1073C46.3965 31.8854 48.3328 31.5895 50.3436 31.3676C50.8649 31.6635 51.4607 32.0334 51.982 32.4033C51.833 32.5512 51.7586 32.6252 51.6096 32.7732C51.3117 32.4772 51.0883 32.3293 50.6415 32.1073C50.567 32.0334 50.4925 32.1813 50.567 32.2553C50.9394 32.4772 51.2373 32.6992 51.4607 32.9211C49.3754 34.6966 47.4391 36.6941 45.8752 38.6176ZM54.3651 34.2528C54.4396 34.1788 54.5885 34.0308 54.663 33.9568C56.1525 34.8446 55.4822 34.6966 54.3651 34.2528ZM52.4288 30.7757C52.8012 30.4058 52.9501 29.888 52.4288 29.5181C50.8649 28.4084 49.3754 27.8905 47.5136 27.5946C49.152 26.041 51.0138 24.5614 52.9501 23.3778C53.9928 25.1533 55.4077 26.7808 56.5993 28.4823C55.4077 29.3701 54.2162 30.3318 53.0991 31.2936C52.8757 31.1456 52.6522 30.9237 52.4288 30.7757ZM85.7182 21.1584C86.3884 20.5665 86.9842 19.9007 87.58 19.3089C87.9524 20.4186 88.5482 21.3803 88.995 22.49C87.9524 21.8982 86.8353 21.5283 85.7182 21.1584ZM91.676 23.3778C91.3037 21.5283 90.0376 20.4186 89.6653 18.717C92.3463 19.013 95.1018 19.3089 97.7828 19.8267C97.7083 19.8267 97.7083 19.9007 97.6339 19.9007C95.921 22.0461 94.0592 22.7119 91.676 23.3778ZM98.3041 19.9747C101.134 20.4926 103.964 21.2323 106.645 22.1941C106.571 22.7859 106.571 23.3778 106.72 23.9696C106.868 24.5614 107.688 24.4874 107.986 24.1176C108.283 23.7477 108.507 23.3778 108.656 22.9339C114.018 25.0793 118.71 28.2604 121.986 32.8471C120.423 33.439 118.859 33.9568 117.295 34.6966L117.22 34.6227C117.593 33.5869 118.114 32.6252 118.784 31.5155C119.157 30.8497 118.561 30.0359 117.667 30.2579C116.252 30.6278 114.837 30.9237 113.422 31.2196C113.273 31.0716 113.124 30.9977 112.901 30.8497C113.348 30.1839 113.794 29.592 114.39 29.0002C114.986 28.4084 114.465 27.2987 113.422 27.5946C111.635 28.0385 109.996 28.4084 110.443 25.8931C110.518 25.3752 110.22 24.7834 109.475 24.7834C107.613 25.0053 106.049 25.4492 104.411 26.041C104.262 25.967 104.113 25.967 104.039 25.8931C103.964 24.8573 103.964 23.8956 103.89 22.8599C103.89 22.564 103.666 22.342 103.368 22.2681C102.177 21.9721 101.581 22.416 100.613 23.0818C99.0488 24.1176 99.0488 21.3063 98.3041 19.9747ZM100.315 24.7094C100.464 24.6354 100.613 24.5614 100.836 24.4135C102.624 23.2298 102.772 24.1176 102.624 25.3752C101.879 25.1533 101.06 24.9313 100.315 24.7094ZM108.283 26.7068C108.209 27.0767 108.135 27.3727 108.135 27.7426C107.688 27.5206 107.241 27.2987 106.868 27.0767C107.315 26.9288 107.837 26.7808 108.283 26.7068ZM115.135 32.6252C115.433 32.5512 115.805 32.4772 116.103 32.4033C115.954 32.6252 115.88 32.9211 115.731 33.1431C115.507 32.9951 115.358 32.7732 115.135 32.6252ZM131.37 95.9517C131.445 96.6915 131.519 97.3574 131.593 98.0971C131.221 97.9492 130.774 97.8752 130.402 97.7272C130.327 97.1354 130.253 96.4696 130.178 95.8778C130.551 95.8778 130.998 95.9517 131.37 95.9517ZM128.689 168.304C126.157 168.008 123.848 167.268 121.689 166.306C121.689 165.714 121.689 165.049 121.689 164.457C122.061 164.235 122.284 163.791 122.21 163.347C122.061 161.572 121.986 159.796 121.986 158.021C121.986 157.947 121.986 157.947 121.986 157.873C121.986 157.799 121.986 157.725 121.986 157.651C122.061 146.998 124.667 136.567 126.976 126.061C128.093 120.957 129.285 115.778 130.03 110.6C132.189 111.635 134.274 112.745 136.732 113.337C139.115 113.929 141.498 114.521 143.881 115.038C144.105 115.112 144.403 115.112 144.552 115.038C144.403 116.222 144.179 117.406 144.03 118.589C139.19 118.589 134.498 117.776 129.732 117.332C129.136 117.258 129.136 117.924 129.583 118.072C134.2 119.403 138.817 120.217 143.807 120.439C143.658 121.475 143.584 122.584 143.435 123.62C139.339 123.028 135.168 122.436 131.072 121.771C130.327 121.623 129.955 122.51 130.774 122.658C134.945 123.546 139.115 124.286 143.286 125.174C143.137 126.875 142.913 128.577 142.764 130.278C142.69 130.056 142.467 129.834 142.094 129.76C137.179 128.947 132.264 127.911 127.423 126.801C127.274 126.801 127.274 126.875 127.349 126.949C131.742 129.169 136.509 130.204 141.573 131.24C142.169 131.388 142.615 131.092 142.764 130.722C142.615 132.202 142.467 133.681 142.318 135.235C142.243 135.235 142.243 135.161 142.169 135.161C139.934 134.569 137.253 134.717 134.945 134.199C132.413 133.607 130.03 132.942 127.721 131.906C127.051 131.61 126.455 132.35 127.125 132.72C129.359 133.903 131.817 134.939 134.349 135.679C136.658 136.345 139.637 137.306 142.094 136.788C141.573 141.227 140.977 145.666 140.158 150.031C138.668 148.995 135.987 148.699 134.051 148.181C131.891 147.589 129.732 147.072 127.497 146.628C127.051 146.554 126.753 147.072 127.2 147.22C129.508 147.959 131.817 148.921 134.051 149.735C135.615 150.327 137.626 151.436 139.413 151.362C139.562 151.362 139.711 151.288 139.86 151.214C139.19 154.544 138.296 157.799 137.179 161.054C137.179 161.054 137.179 161.054 137.104 161.054C132.934 159.944 128.912 159.426 125.04 157.725C124.816 157.651 124.593 157.873 124.816 158.021C128.242 159.87 132.562 161.424 136.807 162.016H136.881C136.211 163.865 135.541 165.641 134.721 167.49C134.498 167.342 134.349 167.268 134.126 167.194C132.04 166.084 129.955 165.419 127.423 165.123C127.2 165.123 127.051 165.271 127.274 165.419C129.21 166.306 131.296 167.268 132.859 168.452C133.232 168.674 133.53 169.044 133.828 169.339C133.53 170.005 133.157 170.597 132.859 171.263C128.987 170.893 125.189 169.857 121.614 168.6C123.848 169.118 126.231 169.413 128.615 169.266C129.21 169.192 129.434 168.378 128.689 168.304ZM159.968 129.686C158.329 140.339 158.031 152.398 151.925 162.237C149.616 165.936 146.265 169.783 140.679 170.819C139.711 170.967 138.743 171.115 137.775 171.189C143.733 161.128 145.073 149.809 146.19 138.934C146.637 134.569 146.86 130.13 147.158 125.692C147.829 125.396 147.977 124.582 147.233 124.212C147.68 116 148.275 107.714 149.988 99.5767C150.212 98.615 148.35 98.1711 148.052 99.1329C146.637 103.72 145.594 108.306 144.85 113.041C144.775 113.041 144.701 112.967 144.552 112.967C139.785 112.227 134.647 111.561 130.03 110.304C130.551 106.235 130.849 102.092 130.476 98.0232C130.923 98.3191 131.37 98.541 131.817 98.8369C132.04 99.1329 132.338 99.2808 132.711 99.2808C133.977 99.8727 135.243 100.391 136.732 100.834C139.041 101.426 142.02 102.314 144.403 101.722C145.222 101.5 145.148 100.76 144.403 100.538C142.169 99.8727 139.562 100.021 137.253 99.4288C136.062 99.1329 134.945 98.8369 133.753 98.541C133.977 97.7272 134.2 96.8395 134.349 96.0257C135.019 96.0997 135.615 96.0997 136.285 96.1737C136.211 96.2477 136.211 96.3956 136.211 96.4696C136.136 98.0232 138.668 96.9874 139.637 96.4696C148.35 97.4313 157.51 99.5028 160.34 105.717C163.691 113.263 161.085 122.141 159.968 129.686Z" fill="#359F64"/>
<path d="M144.179 107.641C140.083 107.715 136.285 107.049 132.338 106.235C131.445 106.013 131.147 107.049 131.966 107.271C135.987 108.38 139.934 109.342 144.179 109.49C145.743 109.564 145.743 107.641 144.179 107.641Z" fill="#359F64"/>
<path d="M136.658 144.038C137.998 144.408 138.594 142.707 137.253 142.411C133.157 141.449 129.061 140.413 124.965 139.525C124.891 139.525 124.891 139.599 124.965 139.599C128.987 140.857 132.562 142.854 136.658 144.038Z" fill="#359F64"/>
<path d="M130.104 153.952C130.998 154.544 131.817 155.21 132.785 155.728C133.083 155.876 133.455 156.172 133.828 156.32C134.051 156.394 134.349 156.615 134.274 156.468C134.945 156.763 135.987 156.689 135.764 155.876C135.466 155.062 134.498 154.544 133.679 154.026C131.221 152.547 127.87 151.215 124.965 150.327C124.742 150.253 124.593 150.549 124.816 150.623C126.753 151.585 128.465 152.843 130.104 153.952Z" fill="#359F64"/>
</g>
<defs>
<clipPath id="clip0_77_497">
<rect width="166" height="174" fill="white"/>
</clipPath>
</defs>
</svg>
