<svg width="18" height="18" viewBox="0 0 18 18" fill="none" xmlns="http://www.w3.org/2000/svg">
<path fill-rule="evenodd" clip-rule="evenodd" d="M9 6.12C7.40942 6.12 6.12 7.40942 6.12 9C6.12 10.5906 7.40942 11.88 9 11.88C10.5906 11.88 11.88 10.5906 11.88 9C11.88 7.40942 10.5906 6.12 9 6.12ZM4.68 9C4.68 6.61413 6.61413 4.68 9 4.68C11.3859 4.68 13.32 6.61413 13.32 9C13.32 11.3859 11.3859 13.32 9 13.32C6.61413 13.32 4.68 11.3859 4.68 9Z" fill="#359F64"/>
<path fill-rule="evenodd" clip-rule="evenodd" d="M5.04 1.44C3.05177 1.44 1.44 3.05177 1.44 5.04V12.96C1.44 14.9482 3.05177 16.56 5.04 16.56H12.96C14.9482 16.56 16.56 14.9482 16.56 12.96V5.04C16.56 3.05177 14.9482 1.44 12.96 1.44H5.04ZM0 5.04C0 2.25648 2.25648 0 5.04 0H12.96C15.7435 0 18 2.25648 18 5.04V12.96C18 15.7435 15.7435 18 12.96 18H5.04C2.25648 18 0 15.7435 0 12.96V5.04Z" fill="#359F64"/>
<path d="M13.68 5.4C14.2765 5.4 14.76 4.91647 14.76 4.32C14.76 3.72353 14.2765 3.24 13.68 3.24C13.0835 3.24 12.6 3.72353 12.6 4.32C12.6 4.91647 13.0835 5.4 13.68 5.4Z" fill="#359F64"/>
</svg>
