<svg width="17" height="16" viewBox="0 0 17 16" fill="none" xmlns="http://www.w3.org/2000/svg">
<path fill-rule="evenodd" clip-rule="evenodd" d="M0.383014 0.374903C0.628254 0.134857 0.96087 0 1.30769 0H11.7692C12.1161 0 12.4487 0.134857 12.6939 0.374903C12.9391 0.614951 13.0769 0.940524 13.0769 1.28V8.32C13.0769 8.65947 12.9392 8.98505 12.6939 9.22509C12.4487 9.46514 12.1161 9.6 11.7692 9.6H4.12155L1.0648 12.0178C0.868859 12.1728 0.599379 12.2038 0.372054 12.0975C0.14473 11.9912 0 11.7666 0 11.52V1.28C0 0.940522 0.137775 0.614949 0.383014 0.374903ZM11.7692 1.28L1.30769 1.28L1.30769 10.18L3.47943 8.46221C3.59576 8.37019 3.74081 8.32 3.89038 8.32H11.7692V1.28Z" fill="#359F64"/>
<path fill-rule="evenodd" clip-rule="evenodd" d="M11.7692 4.48C11.7692 4.12654 12.062 3.84 12.4231 3.84H15.6923C16.0391 3.84 16.3717 3.97486 16.617 4.2149C16.8622 4.45495 17 4.78052 17 5.12V15.36C17 15.6066 16.8553 15.8312 16.6279 15.9375C16.4006 16.0438 16.1311 16.0128 15.9352 15.8578L12.8785 13.44H5.23077C4.88395 13.44 4.55133 13.3051 4.30609 13.0651C4.06085 12.825 3.92308 12.4995 3.92308 12.16V8.96C3.92308 8.60653 4.21581 8.32 4.57692 8.32C4.93803 8.32 5.23077 8.60653 5.23077 8.96V12.16H13.1096C13.2592 12.16 13.4042 12.2102 13.5206 12.3022L15.6923 14.02V5.12H12.4231C12.062 5.12 11.7692 4.83346 11.7692 4.48Z" fill="#359F64"/>
</svg>
