<svg width="156" height="191" viewBox="0 0 156 191" fill="none" xmlns="http://www.w3.org/2000/svg">
<g clip-path="url(#clip0_77_478)">
<path d="M103.4 74.3999C105.2 72.1999 106.7 69.8999 107.5 67.4999C107.7 66.8999 106.9 66.5999 106.5 66.8999C104.4 68.7999 103 71.2999 101.2 73.4999C99.0998 76.1999 96.7998 78.6999 94.5998 81.2999C92.3998 83.8999 90.4998 86.5999 88.6998 89.5999C87.0998 92.2999 85.4998 94.9999 83.7998 97.5999C83.2998 98.3999 82.7998 99.1999 82.3998 99.9999C82.3998 100.1 82.2998 100.1 82.2998 100.2C82.1998 100.3 82.1998 100.4 82.0998 100.5C82.0998 100.6 82.0998 100.6 82.0998 100.7C81.5998 100.5 80.9998 100.3 80.4998 100.2C78.3998 99.7999 76.4998 100.3 74.9998 101.4C75.0998 101.2 75.0998 101 74.8998 100.8C66.1998 94.4999 60.2998 85.1999 50.7998 79.6999C50.3998 79.4999 49.8998 79.3999 49.4998 79.6999C48.8998 79.8999 48.1998 80.0999 47.5998 80.3999C46.7998 80.3999 45.9998 81.1999 46.2998 82.0999C50.9998 93.4999 60.0998 102 71.4998 106.4C71.3998 106.8 71.2998 107.1 71.1998 107.5C70.9998 108.3 71.2998 109.2 71.9998 109.5C72.7998 110 74.6998 111.2 76.3998 112C76.6998 112.5 76.9998 113 77.2998 113.3C80.5998 117 85.7998 111.5 86.3998 108.1C86.5998 106.7 86.3998 105.3 85.7998 104.1C93.9998 92.7999 98.3998 78.5999 108.5 68.8999C108.5 68.8999 108.5 68.7999 108.4 68.7999C106.7 70.6999 105 72.4999 103.4 74.3999ZM49.5998 82.8999C50.5998 82.8999 51.2998 82.9999 52.6998 83.9999C55.3998 85.7999 57.6998 88.0999 60.1998 90.2999C64.7998 94.2999 69.1998 98.4999 74.4998 101.6C74.5998 101.7 74.6998 101.7 74.7998 101.7C73.8998 102.4 73.1998 103.2 72.5998 104.2C62.6998 99.4999 54.3998 93.0999 49.5998 82.8999ZM80.7998 111.5C81.0998 110.4 79.4998 109.6 78.7998 109.1C78.3998 108.9 77.9998 108.6 77.4998 108.4C77.1998 107.1 77.0998 105.7 76.8998 104.4C77.5998 103.9 78.3998 103.5 79.4998 103.6C80.7998 103.6 81.9998 104.4 82.7998 105.4C82.6998 105.5 82.6998 105.6 82.5998 105.6C81.9998 106.3 82.6998 107.3 83.3998 107.2C83.3998 108.5 82.1998 110.7 80.7998 111.5ZM84.7998 102.7C84.1998 102.1 83.4998 101.5 82.7998 101.1C84.5998 100.4 89.1998 92.1999 89.8998 91.0999C92.0998 87.7999 94.4998 84.7999 96.9998 81.6999C98.3998 79.9999 100.1 78.1999 101.8 76.2999C99.4998 79.0999 97.3998 82.0999 95.4998 85.2999C91.9998 91.1999 88.8998 97.1999 84.7998 102.7Z" fill="#359F64"/>
<path d="M75.5 66.0997C76.5 63.8997 76.5 62.2997 76.6 59.8997C76.6 58.6997 76.8 57.4997 76.9 56.3997C77 54.7997 76.9 53.6997 76.9 52.0997C76.9 51.6997 76.3 51.4997 76.1 51.8997C75.5 53.0997 75.2 53.1997 74.9 54.3997C74.5 55.7997 74.2 57.1997 73.9 58.6997C73.3 61.4997 72.9 63.5997 74 66.1997C74.2 66.7997 75.3 66.6997 75.5 66.0997Z" fill="#359F64"/>
<path d="M82.3 139.7C82.1 139.2 81.4 139.1 81 139.4C78.3 140.8 78 145.4 77.9 148.1C77.6 151.8 78.5 154.9 81 157.6C81.5 158.2 82.6 157.6 82.3 156.8C81.1 153.4 81 149.9 81.8 146.4C82.2 144.3 83.3 141.8 82.3 139.7Z" fill="#359F64"/>
<path d="M40.1998 104.9C40.2998 104.5 40.0998 104 39.6998 103.8C38.0998 102.8 36.1998 103.5 34.3998 103.9C31.5998 104.5 28.6998 103.9 26.0998 103.2C24.0998 102.7 23.3998 105.5 25.2998 106.2C28.6998 107.4 38.4998 110 40.1998 104.9Z" fill="#359F64"/>
<path d="M132.6 98.5002C130.6 97.9002 128.5 98.6002 126.4 98.9002C123.8 99.4002 121.1 99.8002 118.5 100.4C117.6 100.6 117.8 102.2 118.7 102.1C121.1 101.9 123.5 101.8 125.9 101.7C128.1 101.6 130.9 101.8 132.8 100.5C133.6 99.9002 133.5 98.8002 132.6 98.5002Z" fill="#359F64"/>
<path d="M97.1998 71.0004C98.2998 69.1004 99.4998 67.3004 100.7 65.5004C101.7 64.0004 103.8 62.5004 104.3 60.8004C104.5 60.2004 103.9 59.6004 103.2 59.7004C101.5 60.2004 100.4 62.5004 99.4999 64.0004C98.1999 66.0004 97.1998 68.2004 96.1998 70.4004C95.9998 71.1004 96.8998 71.7004 97.1998 71.0004Z" fill="#359F64"/>
<path d="M123.3 78.0996C123.7 77.7996 123.8 76.8996 123.1 76.7996C117.6 75.8996 112.8 81.4996 109.4 85.0996C108.4 86.1996 109.9 87.6996 111 86.6996C113 84.8996 115 83.0996 117.3 81.5996C119.3 80.3996 121.4 79.4996 123.3 78.0996Z" fill="#359F64"/>
<path d="M121.8 120.8C119.9 119.8 117.6 119.4 115.6 119.1C114.7 119 114.4 120.1 115.2 120.5C117.3 121.3 119.1 122.5 121 123.6C122.6 124.5 123.9 126.1 125.8 125.8C126.3 125.7 126.5 125.1 126.4 124.7C126.1 122.6 123.4 121.7 121.8 120.8Z" fill="#359F64"/>
<path d="M103 137.6C102.3 136.8 100.9 135.3 100.1 136.7C100.1 136.7 100.1 136.7 100.1 136.8C100.5 137 101 139.8 101.1 140.4C101.8 142.6 102.4 144.8 103.1 147C104 149.7 107.9 148.1 106.7 145.5C105.6 142.8 104.8 139.9 103 137.6Z" fill="#359F64"/>
<path d="M62.6998 138.3C62.0998 138.8 60.7998 139.5 60.3998 140.1C59.6998 141 58.9998 141.9 58.2998 142.9C57.1998 144.4 54.8998 146.6 55.1998 148.6C55.2998 149.2 55.6998 149.6 56.3998 149.5C58.4998 149.1 59.2998 146.3 60.0998 144.7C60.5998 143.7 60.9998 142.7 61.5998 141.8C62.1998 140.7 62.3998 139.6 63.1998 138.6C63.1998 138.3 62.8998 138.2 62.6998 138.3Z" fill="#359F64"/>
<path d="M46 124.8C41.8 124.4 37.3 125.5 33.5 127.2C32.1 127.8 33.1 130.2 34.5 129.7C38.3 128.3 42.5 127 46.1 125.1C46.2 125 46.1 124.8 46 124.8Z" fill="#359F64"/>
<path d="M36.4998 82.5001C37.5998 83.1001 38.5998 83.3001 39.7998 83.4001C40.8998 83.5001 41.5998 83.0001 42.5998 82.9001C42.8998 82.9001 42.8998 82.4001 42.5998 82.3001C41.8998 82.2001 41.6998 81.8001 41.0998 81.5001C40.1998 81.1001 39.2998 80.6001 38.3998 80.2001C36.2998 79.1001 35.2998 77.4001 33.9998 75.5001C32.9998 74.0001 30.1998 74.9001 30.8998 76.8001C31.9998 79.4001 34.1998 81.3001 36.4998 82.5001Z" fill="#359F64"/>
<path d="M55.6998 71.0005C55.9998 71.4005 56.7998 71.2005 56.5998 70.6005C55.7998 68.1005 55.0998 65.8005 54.1998 63.4005C53.3998 61.2005 53.2998 58.4005 51.6998 56.6005C51.1998 56.0005 50.3998 56.4005 50.0998 57.0005C49.2998 59.3005 50.6998 62.0005 51.5998 64.1005C52.6998 66.7005 54.0998 68.8005 55.6998 71.0005Z" fill="#359F64"/>
<path d="M142.8 82.9001C143 82.6001 142.9 82.2001 142.6 82.1001C141.4 77.7001 139.8 73.5001 137.7 69.4001C138.2 69.1001 137.8 68.4001 137.2 68.5001C136.3 66.9001 135.4 65.3001 134.4 63.8001C125.8 50.6001 112.2 41.6001 97.2 37.3001C81.3 32.7001 63.5 33.4001 48.6 40.7001C34.7 47.5001 24.9 60.2001 19.2 74.4001C16.4 81.4001 15 88.5001 14.3 95.8001C14.2 95.8001 14.1 95.8001 13.9 95.9001C13.8 94.3001 13.7 92.6001 13.7 91.0001C13.7 90.9001 13.6 90.9001 13.6 91.0001C13.6 92.6001 13.6 94.3001 13.6 95.9001C13.5 95.9001 13.5 96.2001 13.6 96.2001C13.6 98.0001 13.7 99.8001 13.7 101.6C13.6 103.7 13.5 105.8 13.5 107.9C13.5 108 13.6 108 13.6 107.9C13.6 106.2 13.7 104.5 13.8 102.7C14.5 118.6 17 134.3 25.8 148.1C29.1 153.2 33.1 157.1 37.7 160C36.6 163.3 36.6 167 36.4 170.5C35.6 172.3 34.8 174.2 34 176C33.1 178 30.7 181.7 30.3 184.6C29.7 184.8 29.2 185.7 29.6 186.3C30.7 187.9 32.6 188.1 33.8 189.7C34.3 190.4 35.5 190.6 35.9 189.7C38.9 183.4 42.5 177.5 46 171.5C46.3 171.4 46.6 171.2 46.9 171.1C48.8 170 50.2 167.9 50.4 165.8C53.7 166.9 57.1 167.7 60.6 168.4C60.6 168.5 60.6 168.6 60.5 168.8C60.5 169.4 61.1 169.5 61.5 169.2C61.7 169.1 61.8 168.9 62 168.7C63.4 169 64.8 169.2 66.2 169.5C83.6 172.5 101.1 167.5 114.9 156.6C116.9 155 118.8 153.3 120.7 151.5C120.6 151.7 120.6 152 120.6 152.2C121.1 155.6 120.4 159.4 118.2 162.2C115.5 165.6 111.6 164 109 161.5C108.3 160.8 107.2 161.9 107.9 162.6C110.1 165.1 113.3 166.9 116.4 166.3C117.2 168.8 118.4 170.9 120 173C121.2 174.7 122.7 177.3 124.8 178.1C125 178.4 125.2 178.7 125.5 179C125.5 179.1 125.6 179 125.6 178.9C125.5 178.6 125.6 178.4 125.6 178.2C126.2 178.2 126.6 177.6 126.5 176.9C126.4 176.5 126.2 176.1 126 175.7C126.1 175.4 126.2 175.2 126.3 174.9C127.2 175.7 129 174.8 128.6 173.4C128.5 173 128.3 172.7 128.2 172.3C128.3 172 128.1 171.6 127.9 171.4C126.3 167.6 124.2 164 123.1 160C123.1 159.9 123 159.8 123 159.8C123.9 157.2 124 154.2 123.6 151.4C123.4 150.4 122.6 150.2 121.9 150.5C123.5 148.9 125 147.3 126.5 145.6C127.4 146.1 128.8 145.5 128.3 144.3C128.2 144.1 128.1 143.9 128.1 143.7C133.4 137.2 137.8 129.8 140.5 121.9C140.7 121.9 140.9 121.9 141.1 121.8C141.2 121.7 141.4 121.5 141.3 121.4C141.3 121.1 141.1 120.8 140.9 120.6C141.7 118.2 142.3 115.9 142.7 113.5C142.9 113.4 143.1 113.2 143.1 113C143.3 108.4 144.8 104.1 144.9 99.4001C144.9 95.0001 144.4 90.6001 143.6 86.3001C143.3 85.2001 143.1 84.1001 142.8 82.9001ZM125.1 172.8C124.8 173.1 124.4 173.4 124.1 173.7C123.6 173.2 123.1 172.7 122.6 172.2C120.9 170.2 119.5 168 118.1 165.8C118.5 165.6 118.9 165.4 119.3 165.1C120.2 164.4 121 163.5 121.6 162.6C122.4 166 123.6 169.5 125.1 172.8ZM130.1 60.0001C129.3 60.3001 128.6 61.1001 127.9 61.6001C127 62.2001 126.1 62.7001 125.1 63.2001C124.9 63.3001 124.8 63.4001 124.8 63.5001C120 58.0001 114.1 53.7001 107.7 50.4001C109.7 48.8001 112.5 47.9001 113.9 45.9001C116.7 47.6001 119.3 49.4001 121.8 51.5001C119.5 51.4001 117.6 53.0001 116.5 55.1001C116.1 55.8001 117.2 56.5001 117.6 55.7001C118.6 53.8001 120.2 52.9001 122.3 52.5001C122.5 52.5001 122.6 52.3001 122.6 52.2001C123.1 52.6001 123.6 53.0001 124.1 53.5001C126.3 55.6001 128.3 57.8001 130.1 60.0001ZM122.4 136.3C114.6 148.5 102.7 156.9 88.8 160.7C77.6 163.8 64.5 161.4 53.8 157.4C52.5 156.9 51.2 156.4 50 155.8V155.6C50 155 49.2 154.9 48.9 155.3C42.7 152.2 37.3 148 33 142.7C33.3 142.6 33.5 142.5 33.8 142.3C34.4 141.8 33.6 140.9 33 141.3C31.7 142.2 28.9 136.7 26.6 131.7C27.1 131.2 27.5 130.7 27.8 130.2C28 129.8 27.6 129.4 27.2 129.6C26.8 129.9 26.4 130.2 26.1 130.5C24.7 127.4 23.6 124.7 23.4 124.1C23 123 22.7 121.9 22.3 120.8C22.5 120.6 22.6 120.4 22.8 120.3C23.4 119.7 22.5 118.7 21.9 119.2C21.4 117 21 114.7 20.8 112.4C21.7 111.9 21.4 110.9 20.6 110.5C20.5 108.4 20.5 106.2 20.6 104.1C20.8 104 20.9 103.8 21.1 103.7C21.7 103.2 21.3 102.4 20.8 102.1C21.2 98.1001 21.9 94.2001 22.9 90.2001C23.3 88.8001 23.7 87.3001 24.1 85.9001C24.2 85.8001 24.4 85.7001 24.5 85.6001C24.8 85.3001 24.8 84.9001 24.6 84.6001C30.3 68.1001 42.5 54.6001 59.4 48.9001C67.5 46.2001 76.1 45.5001 84.5 46.4001C84.5 46.6001 84.5 46.8001 84.5 47.0001C84.5 47.5001 85.2 47.7001 85.4 47.3001C85.5 47.1001 85.6 46.9001 85.7 46.6001C89.3 47.1001 92.9 47.9001 96.3 49.0001C96.4 49.2001 96.6 49.3001 96.9 49.3001H97C117.7 56.1001 134.5 73.4001 134.9 96.9001C135.1 110.4 129.6 124.9 122.4 136.3ZM109.9 157.4C110 157.5 110.1 157.5 110.2 157.5C108.2 158.9 106.1 160.1 104 161.2C104 161.1 104.1 161.1 104.1 161C104.4 160.3 104.4 159.5 104.4 158.7C104.4 158.2 104 157.9 103.6 157.8C105.7 156.6 107.7 155.3 109.7 153.9C109.7 154.3 109.6 154.6 109.6 155C109.6 156 109.3 156.8 109.9 157.4ZM85.4 166.1C85.6 165.5 85.6 164.8 85.6 164.1C89.1 163.5 92.6 162.6 96 161.3C95.8 162 95.5 162.6 94.8 163C93.9 163.5 94.7 164.8 95.6 164.4C96.4 164 97 163.5 97.2 162.7C97.4 162.1 97.3 161.5 97.2 160.8C99 160.1 100.8 159.3 102.5 158.3C102.5 158.4 102.4 158.5 102.4 158.6C102.4 159.1 102.4 159.7 102.3 160.2C102.2 160.6 101.7 160.9 101.4 161.1C100.8 161.4 100.9 162.1 101.2 162.5C95.7 165.1 89.9 166.8 83.9 167.6C84.6 167.3 85.2 166.8 85.4 166.1ZM75.3 35.8001C88.4 35.5001 101.5 38.8001 112.8 45.3001C111.8 45.9001 110.8 46.6001 109.8 47.4001C108.7 48.2001 107.6 49.0001 106.6 50.0001C104.2 48.9001 101.8 47.9001 99.3 47.0001C99.4 46.8001 99.6 46.5001 99.7 46.3001C100.4 45.0001 100.7 43.5001 100.7 42.0001C100.7 41.3001 99.8 41.4001 99.7 42.0001C99.5 43.5001 98.9 44.7001 98.1 45.9001C97.9 46.1001 97.8 46.3001 97.6 46.5001C93.9 45.4001 90.2 44.6001 86.4 44.1001C86.7 41.7001 86.5 39.2001 86.8 37.0001C86.8 36.8001 86.6 36.7001 86.5 36.9001C85.8 39.0001 85 41.5001 84.7 43.9001C81.6 43.6001 78.4 43.5001 75.2 43.6001C75.2 41.4001 75.2 39.1001 75.1 36.9001C75.1 36.4001 74.4 36.4001 74.4 36.9001C74.4 39.2001 74.4 41.4001 74.3 43.7001C71.2 43.9001 68.1 44.3001 65 44.9001C65.2 42.6001 65 40.1001 65 37.8001C65 37.2001 64.1 37.2001 64.1 37.8001C64.1 40.2001 63.8 42.7001 64.1 45.1001C61.1 45.8001 58.1 46.7001 55.2 47.8001C55.4 45.6001 54.4 43.6001 53.2 41.7001C52.9 41.2001 51.9 41.5001 52.2 42.1001C52.9 44.2001 53.1 46.3001 53.7 48.4001C51.7 49.3001 49.7 50.2001 47.9 51.3001C47.7 51.1001 47.4 51.1001 47.1 50.9001C46.7 50.7001 46.3 50.4001 46 50.0001C45.3 49.2001 45.2 48.0001 45.1 47.0001C45.1 46.0001 43.5 46.0001 43.5 47.0001C43.5 48.4001 43.7 49.7001 44.5 50.9001C44.8 51.4001 45.4 52.0001 46.1 52.4001C45.6 52.7001 45.1 53.0001 44.6 53.4001C42.6 54.8001 40.7 56.3001 38.9 57.9001C38.5 57.7001 38.1 57.5001 37.6 57.3001C36.5 56.7001 35.5 56.0001 34.5 55.2001C34 54.7001 33.2 55.5001 33.7 56.0001C34.6 56.9001 35.5 57.7001 36.6 58.4001C36.9 58.6001 37.3 58.9001 37.7 59.1001C32.9 63.6001 29 69.0001 26.1 75.0001C26 75.0001 25.9 75.0001 25.7 75.0001C25.1 75.1001 24.4 75.1001 23.7 75.0001C22.6 74.8001 21.7 74.3001 20.8 73.7001C22.1 70.7001 23.5 67.8001 25.2 65.0001C25.3 65.6001 25.7 66.1001 26.1 66.6001C26.9 67.5001 27.9 68.3001 29.1 68.4001C30 68.5001 30.2 67.4001 29.8 66.8001C29.2 66.1001 28.4 66.0001 27.7 65.6001C27 65.2001 26.5 64.8001 26.4 64.0001C26.4 63.9001 26.3 63.8001 26.2 63.7001C27.2 62.1001 28.3 60.5001 29.4 58.9001C40.1 43.9001 57.1 36.2001 75.3 35.8001ZM20.4 74.7001C21.2 75.7001 22 76.5001 23.2 76.9001C23.7 77.1001 24.3 77.2001 24.9 77.2001C23.8 79.5001 22.9 81.9001 22.1 84.4001C21.7 84.5001 21.3 84.5001 20.9 84.6001C19.6 84.7001 18.6 84.6001 17.5 83.8001C17.4 83.7001 17.4 83.7001 17.3 83.7001C18.2 80.6001 19.2 77.6001 20.4 74.7001ZM16.9 84.8001C17.8 85.8001 18.9 86.4001 20.1 86.6001C20.5 86.7001 20.8 86.7001 21.3 86.7001C20.5 89.5001 19.8 92.3001 19.2 95.1001C17.7 95.0001 16.1 95.4001 14.6 95.7001C15.2 92.1001 16 88.5001 16.9 84.8001ZM14 96.3001C14.1 96.3001 14.2 96.3001 14.3 96.4001C14.2 97.1001 14.2 97.8001 14.1 98.5001C14.1 97.7001 14.1 97.0001 14 96.3001ZM14.6 96.4001C16 96.7001 17.5 97.1001 18.9 97.1001C18.8 97.8001 18.7 98.5001 18.6 99.2001C18.4 100.7 18.2 102.2 18.1 103.6C18 103.7 17.8 103.8 17.6 103.8C16.7 104.1 16.1 103.3 15.7 102.7C15.5 102.5 15.2 102.6 15.2 102.8C15.1 104.3 15.7 105.7 17.4 105.7C17.6 105.7 17.8 105.7 18 105.6C17.9 107.4 18 109.3 18.1 111.1C17.9 111.2 17.7 111.3 17.5 111.4C17 111.7 16.5 111.9 15.9 112.1C15.2 107.9 14.6 103.7 14.3 99.5001C14.4 98.5001 14.5 97.5001 14.6 96.4001ZM38.5 160.5C39.3 161 40.1 161.4 40.9 161.9C40.8 161.9 40.8 162 40.7 162C39.8 163.7 39.1 165.3 38.3 167C38.1 164.8 38.1 162.6 38.5 160.5ZM34.8 187.1C34.4 186.7 33.9 186.3 33.3 185.9C33.3 185.5 33.2 185.1 33.2 184.7C33.5 183.4 34.5 181.6 34.7 181C35.5 178.7 36.4 176.5 37.2 174.3C37.5 173.5 37.8 172.6 38.2 171.8C40.4 172.4 42.8 172.6 45 172C41.2 176.8 37.8 181.8 34.8 187.1ZM45.2 169.1C43.4 170.2 41 170.2 38.9 169.9C39.8 167.4 40.6 164.9 41.1 162.2C41.1 162.1 41.1 162.1 41.1 162C43.3 163.2 45.6 164.2 47.9 165C47.3 166.6 46.9 168.1 45.2 169.1ZM63.7 166.9C64.1 166.5 64.5 166.2 64.8 165.8C65.1 165.4 64.7 165 64.3 165.3C63.7 165.8 62.9 166.2 62.2 166.6C57.9 165.8 53.8 164.7 49.9 163.4C49.7 163.1 49.4 163.1 49.1 163.1C40.4 159.9 32.7 154.9 27.1 146.3C22 138.5 19.3 129.5 17.4 120.5C16.9 118.3 16.5 116.1 16.1 113.9C16.7 113.9 17.3 113.9 17.9 113.8C18 113.8 18.1 113.8 18.3 113.7C18.6 116.3 19.1 118.9 19.9 121.4C19.7 121.6 19.5 121.8 19.3 122C19.1 122.1 19.1 122.2 19 122.2C19 122 19 121.8 19.1 121.6C19.1 121.3 18.8 121.3 18.7 121.5C18.6 121.9 18.5 122.3 18.4 122.7C18.3 123.1 18.6 123.5 19 123.5C19.5 123.5 20 123.2 20.4 122.8C20.8 124 21.2 125.2 21.8 126.3C22.6 128.1 23.4 130.1 24.3 132C23.7 132.5 23 133 22.3 133.2C22.2 133.2 22.2 133.3 22.3 133.3C23.2 133.5 24 133.3 24.8 132.9C25.4 134.1 26 135.4 26.8 136.5C27.1 137.4 27.4 138.3 27.8 139.2C27.2 140 26.5 140.6 25.5 141.1C24.8 141.5 25.4 142.6 26.1 142.2C27 141.8 27.7 141.2 28.4 140.5C29.8 143.4 31.7 145.9 33.9 148.3C33.9 148.7 33.9 149.2 33.8 149.6C33.7 150 33.9 150.2 33.6 150.6C33.3 151 32.9 151.4 32.5 151.6C32.3 151.7 32.5 151.9 32.6 151.8C33.1 151.6 33.5 151.3 33.8 151C33.9 150.9 34.1 150.8 34.2 150.6C34.4 150.3 34.7 150.2 34.9 149.9C35 149.7 35.1 149.5 35.1 149.3C36.6 150.7 38.1 151.9 39.8 153.1C39.5 154.2 39.3 155.4 38.9 156.4C38.7 156.9 39.4 157.3 39.6 156.8C40 156.1 40.2 155.3 40.4 154.5C40.5 154.2 40.6 153.9 40.7 153.6C45.9 157.1 51.9 159.7 57.6 161.4C64.5 163.5 71.5 164.5 78.3 164.2C77 165.3 75.8 166.5 74.6 167.6C72 167.5 69.4 167.3 66.9 166.8C65.8 167.3 64.8 167.1 63.7 166.9ZM76.2 168.3C77.3 167.2 78.3 166 79.4 164.8C81 164.7 82.6 164.6 84.3 164.4C84.3 164.8 84.2 165.2 84.1 165.5C84 166 83.5 166.2 83.1 166.4C82.4 166.7 82.6 167.6 83.1 167.9C80.7 168.1 78.4 168.3 76.2 168.3ZM121.3 148.3C121.3 148.1 121.3 147.8 121.3 147.6C121.3 146.8 120.9 146 120.8 145.2C120.7 144.9 120.3 144.9 120.2 145.2C120.1 145.6 120.1 145.9 120 146.3C119.9 146.6 119.7 146.9 119.7 147.2C119.7 148.1 119.7 149 119.6 149.9C118.5 151 117.3 152.1 116.1 153.1C114.4 154.6 112.6 155.9 110.8 157.2C111.2 156.6 111 155.9 110.9 155.1C110.9 154.5 110.8 153.8 110.8 153.2C115.7 149.4 119.9 144.8 123.4 139.7C124 141.1 124.7 142.5 125.3 143.9C124 145.4 122.7 146.9 121.3 148.3ZM142.4 108.9C142.1 108.9 141.7 109.1 141.6 109.5C140.8 112.9 139.8 116.2 138.8 119.4C137.9 118.8 137 118.2 136 117.7C135.3 117.4 134.8 118.3 135.4 118.7C136.4 119.3 137.4 120.1 138.3 120.9C137.2 124 136 127 134.5 129.9C134.5 129.8 134.5 129.8 134.5 129.7C134.2 128.9 133.5 128.6 132.8 128.3C132.1 128 131.4 127.8 130.7 127.8C130.2 127.8 130.1 128.6 130.6 128.6C131.2 128.7 131.7 129 132.2 129.3C132.5 129.5 132.8 129.7 133 129.9C133.3 130.2 133.6 130.3 134 130.4C134.1 130.5 134.3 130.4 134.4 130.4C133.9 131.4 133.4 132.4 132.8 133.4C131.1 136.3 129.2 139.1 127.2 141.7C126.4 140.4 125.6 139.2 124.8 137.9C128.7 132 131.7 125.4 134 118.7C139.4 102.6 139.5 85.8001 130.5 71.0001C129.1 68.7001 127.6 66.6001 125.9 64.6001C126 64.6001 126 64.6001 126.1 64.5001C127.2 64.0001 128.2 63.5001 129.2 62.8001C129.9 62.4001 130.8 61.8001 131.2 61.1001C133.1 63.6001 134.8 66.3001 136.2 69.0001C134.8 69.9001 133.4 70.8001 132.3 72.1001C132.2 72.2001 132.4 72.4001 132.5 72.3001C133.7 71.2001 135.1 70.4001 136.6 69.8001C138.6 73.7001 140.1 77.8001 141.3 82.0001C140.5 82.1001 139.7 82.2001 138.9 82.4001C137.7 82.7001 137 82.9001 136.3 83.9001C136.1 84.1001 136.4 84.4001 136.6 84.4001C137.6 84.5001 138.3 84.3001 139.3 84.1001C140.2 83.9001 140.9 83.8001 141.6 83.4001C142.3 86.2001 142.8 89.1001 143.1 92.1001C143 91.9001 142.8 91.7001 142.5 91.7001C140.6 91.8001 138.7 92.0001 137.7 93.9001C137.3 94.6001 138.4 95.3001 138.8 94.5001C139.6 93.1001 141.1 93.2001 142.5 93.3001C142.9 93.3001 143.1 93.1001 143.2 92.8001C143.5 95.7001 143.6 98.6001 143.6 101.5C143.5 104.2 142.9 106.5 142.4 108.9Z" fill="#359F64"/>
<path d="M139.7 105.8C138.9 105.6 138.1 105.7 137.3 105.8C136.8 105.9 136.8 106.7 137.3 106.8C138.5 107 139.4 107.2 140.1 108.2C140.6 109 141.7 108.3 141.3 107.5C140.9 106.7 140.5 106 139.7 105.8Z" fill="#359F64"/>
<path d="M54.6999 34.5003C55.4999 34.3003 55.5999 33.5003 55.2999 32.9003C54.1999 25.8003 50.8999 19.2003 42.9999 18.6003C36.5999 18.1003 29.9999 21.4003 24.4999 24.8003C23.5999 22.5003 22.0999 20.3003 19.6999 19.5003C17.3999 18.7003 15.1999 19.4003 13.2999 20.8003C11.2999 22.4003 10.2999 24.9003 10.0999 27.3003C9.89989 29.8003 10.8999 32.0003 12.3999 33.8003C7.89989 38.2003 3.99989 43.2003 1.59989 49.2003C-2.60011 59.6003 1.79989 69.6003 10.2999 76.0003C10.4999 76.2003 10.6999 75.8003 10.5999 75.7003C2.79989 67.9003 -0.600114 58.3003 4.19989 48.0003C7.89989 40.0003 15.2999 33.7003 22.3999 28.7003C22.7999 28.4003 23.2999 28.1003 23.6999 27.8003C24.2999 27.9003 25.0999 27.6003 25.0999 26.9003C29.6999 23.9003 34.7999 21.4003 40.2999 20.7003C48.2999 19.7003 52.0999 25.8003 53.3999 32.7003C32.7999 37.0003 20.1999 56.2003 11.8999 74.0003C11.7999 74.2003 12.0999 74.5003 12.2999 74.2003C21.4999 57.3003 34.3999 38.1003 54.6999 34.5003ZM21.2999 26.9003C18.2999 28.9003 15.4999 31.1003 12.7999 33.5003C10.9999 30.1003 10.9999 25.8003 13.9999 22.9003C15.1999 21.8003 16.8999 21.2003 18.4999 21.6003C20.5999 22.1003 21.7999 24.2003 22.4999 26.2003C22.0999 26.4003 21.6999 26.6003 21.2999 26.9003Z" fill="#359F64"/>
<path d="M155.1 50.6C154.1 43.9 152.1 37.9 148.8 32.6C150.5 31.9 152 31.4 153.5 30.1C154.5 29.2 153.3 26.2 153 25.1C152.1 22.1 150.2 19 147.2 18C145.7 17.5 144.2 17.5 142.7 17.7C140.5 18 139.9 18.5 139.6 20.7C139.5 21.3 139.6 22.1 140.3 22.3C141.3 22.6 141.6 21.5 142.5 21.7C142.6 21.7 142.6 21.6 142.6 21.6C142.2 21.2 141.6 21.1 141.1 21C140.9 20.9 141.4 19.9 141.9 19.7C143.2 19.4 144.5 19.4 145.8 19.7C149.6 20.6 151 25.3 151.5 28.8C150.3 29.7 148.9 30.1 147.6 30.6C145.3 27.4 142.5 24.6 139.1 22C132.2 16.8 123.1 13.4 114.5 14.2C113.1 14.3 111.8 14.6 110.5 15C107.5 8.60004 103 4.10004 95.8999 2.10004C88.1999 4.26769e-05 79.5999 0.200043 71.6999 4.25791e-05C59.8999 -0.199957 40.6999 2.00004 44.0999 18.3C44.0999 18.5 44.4999 18.5 44.4999 18.2C42.7999 2.80004 61.2999 1.70004 72.3999 2.00004C79.0999 2.20004 86.0999 2.50004 92.7999 3.70004C100.3 5.10004 105.2 9.20004 108 15.8C102.5 18.4 98.8999 23.6 97.1999 29.8C96.6999 31.5 99.2999 32.2 99.7999 30.5C99.7999 30.4 99.7999 30.3 99.8999 30.3C99.8999 30.4 100.1 30.5 100.2 30.5C112.9 32.2 122.7 40.6 130.5 50.2C134.7 55.4 138.2 61.2001 141 67.3C142.4 70.2001 143.5 73.1 144.5 76.2C145.2 78.5 145.4 81.2001 146.6 83.3C147.1 84.1001 148.6 84.1 148.8 83C148.9 82.3 148.9 81.5 148.9 80.7C150.1 76.2 152.2 72.2001 154 67.9C156.1 62.3 156 56.4 155.1 50.6ZM150.9 69C149.9 71.6 148.9 74.2001 148.1 76.8C147.1 73.2001 145.2 69.5 143.9 66.8C140.9 60.1 137 53.9 132.4 48.2C124.9 38.7 113.1 28.6 99.9999 29.8C99.8999 29.8 99.8999 29.8 99.7999 29.9C101.4 24.6 104.5 20.7 108.8 18.6V18.7C109.3 20.3 111.8 19.6 111.3 18C111.3 17.9 111.2 17.7 111.2 17.6C113 17 115 16.8 117.2 16.8C125.1 16.9 133 20.8 139 25.7C148 33 151.5 43.3 152.7 54.5C153.4 59.4 152.7 64.2 150.9 69Z" fill="#359F64"/>
</g>
<defs>
<clipPath id="clip0_77_478">
<rect width="155.7" height="190.4" fill="white"/>
</clipPath>
</defs>
</svg>
