<svg width="20" height="15" viewBox="0 0 20 15" fill="none" xmlns="http://www.w3.org/2000/svg">
<path d="M2.9 15V3.56L0.2 5.22V2.22L2.9 0.599999H5.68V15H2.9ZM9.08203 14.98V12.62L15.122 7.26C15.5754 6.86 15.8954 6.48333 16.082 6.13C16.2687 5.77667 16.362 5.44667 16.362 5.14C16.362 4.7 16.272 4.31 16.092 3.97C15.912 3.62333 15.6587 3.35333 15.332 3.16C15.0054 2.96 14.622 2.86 14.182 2.86C13.722 2.86 13.3154 2.96667 12.962 3.18C12.6154 3.38667 12.3454 3.66333 12.152 4.01C11.9587 4.35 11.8687 4.72 11.882 5.12H9.08203C9.08203 4.13333 9.2987 3.28 9.73203 2.56C10.1654 1.84 10.7687 1.28333 11.542 0.89C12.3154 0.496666 13.2154 0.3 14.242 0.3C15.182 0.3 16.022 0.506666 16.762 0.919999C17.5087 1.32667 18.0954 1.89667 18.522 2.63C18.9487 3.36333 19.162 4.21333 19.162 5.18C19.162 5.89333 19.062 6.48667 18.862 6.96C18.662 7.42667 18.3654 7.86 17.972 8.26C17.5787 8.65333 17.0954 9.1 16.522 9.6L12.622 13.02L12.402 12.42H19.162V14.98H9.08203Z" fill="#359F64"/>
</svg>
