<svg width="111" height="166" viewBox="0 0 111 166" fill="none" xmlns="http://www.w3.org/2000/svg">
<path d="M20.347 163.881C17.216 154.489 8.4972 147.289 5.24966 137.546C3.02066 130.859 1.95776 123.883 1.95776 116.887C1.95776 103.516 20.5654 101.502 29.5416 106.671C32.0044 108.088 38.371 119.856 31.9822 118.873C24.7275 117.757 17.2471 112.715 15.4659 105.195C11.6561 89.1088 18.8291 72.9592 27.9524 60.1866C35.5412 49.5623 49.8732 36.3183 63.0282 32.8865C67.3937 31.7477 73.1842 28.9419 76.5363 25.9622C80.5377 22.4054 86.1853 20.8408 90.3283 17.3352C95.9723 12.5594 102.586 5.7858 109.228 2.46484" stroke="#359F64" stroke-width="3" stroke-linecap="round" stroke-dasharray="6 6"/>
</svg>
