<svg width="323" height="331" viewBox="0 0 323 331" fill="none" xmlns="http://www.w3.org/2000/svg">
<path d="M190.676 2.0293C214.638 19.6011 238.839 38.1404 259.227 59.8497C274.056 75.6401 282.893 96.0158 289.403 116.478C295.997 137.199 295.739 157.93 295.29 179.514C294.982 194.296 268.485 186.784 262.058 180.11C253.609 171.337 264.285 158.196 273.533 155.224C288.565 150.392 300.59 160.349 308.702 171.616C324.762 193.922 325.097 230.254 310.192 252.758C280.046 298.272 238.947 323.445 184.641 327.269C150.064 329.704 113.687 329.308 79.0592 327.865C60.2268 327.081 41.0875 325.764 22.729 321.234C17.1289 319.852 5.01419 315.674 1.56787 310.504" stroke="#359F64" stroke-width="3" stroke-linecap="round" stroke-dasharray="6 6"/>
</svg>
