<svg width="381" height="251" viewBox="0 0 381 251" fill="none" xmlns="http://www.w3.org/2000/svg">
<path d="M1.88184 1.92773C2.87541 14.8443 9.82563 28.736 16.9017 39.35C23.9597 49.9371 30.5325 58.3799 39.8133 67.2894C54.1268 81.0304 69.2272 87.2986 88.3095 91.7284C97.13 93.7761 103.397 93.7153 111.157 88.9918C113.477 87.5798 118.255 83.7315 118.667 80.8454C119.845 72.6016 125.009 62.3231 114.785 57.552C103.127 52.1118 97.8644 73.8194 95.5648 80.7182C86.6234 107.542 89.3521 133.746 105.493 157.727C127.576 190.536 166.76 213.398 201.467 230.407C221.502 240.225 245.714 244.886 267.656 247.845C291.902 251.115 316.352 247.656 340.21 243.263C366.914 238.346 354 240 379.5 234.5" stroke="#359F64" stroke-width="3" stroke-linecap="round" stroke-dasharray="6 6"/>
</svg>
