<svg width="300" height="245" viewBox="0 0 300 245" fill="none" xmlns="http://www.w3.org/2000/svg">
<path d="M13.0822 244.489C-6.70045 241.192 0.854617 218.211 8.86809 207.767C18.0436 195.808 30.5505 183.872 46.3435 182.331C66.791 180.337 88.4552 182.181 108.953 182.181C157.056 182.181 202.545 182.257 246.287 158.928C270.424 146.055 294.912 123.069 298.587 94.5879C300.464 80.0471 296.197 58.9439 283.688 49.4368C279.701 46.4073 277.322 41.5661 273.754 37.9986C271.484 35.7285 265.754 30.1499 262.918 29.1188C251.128 24.8316 236.865 14.219 223.712 14.219C217.088 14.219 208.071 10.4886 201.663 8.49985C198.924 7.64969 187.282 2.78212 185.5 1" stroke="#359F64" stroke-linecap="round" stroke-dasharray="6 6"/>
</svg>
