<svg width="190" height="241" viewBox="0 0 190 241" fill="none" xmlns="http://www.w3.org/2000/svg">
<path d="M0.70874 239.038C12.077 239.038 28.1848 241.916 39.2377 238.436C52.3337 234.313 66.216 228.863 78.2181 222.182C97.6259 211.377 118.118 194.229 129.841 175.225C134.64 167.444 148.123 149.063 142.182 138.878C138.223 132.091 123.027 134.589 129.991 143.544C137.836 153.63 159.597 147.564 168.37 142.415C178.459 136.493 182.118 115.841 186.28 106.294C189.412 99.109 188.989 92.3278 188.989 84.6216C188.989 79.7165 185.647 75.1725 185 70.3238C184.457 66.2451 185.478 63.2551 182.517 59.939C180.112 57.2456 180.026 55.383 179.356 52.0376C178.54 47.9529 174.907 45.3045 173.788 41.2766C172.838 37.8585 172.032 35.8968 170.1 32.9989C163.382 22.9206 159.764 10.4375 152.416 0.640625" stroke="#359F64" stroke-linecap="round" stroke-dasharray="6 6"/>
</svg>
