<svg width="292" height="188" viewBox="0 0 292 188" fill="none" xmlns="http://www.w3.org/2000/svg">
<path d="M45.1989 1.42383C45.1989 14.4317 46.0009 27.348 46.0009 40.3622C46.0009 50.3219 46.7984 58.9314 42.3476 68.0735C40.0072 72.8809 37.3174 77.1699 34.061 81.4391C29.7374 87.1071 25.3241 92.7422 20.5172 98.0124C18.61 100.103 16.0362 103.334 13.0325 104.027C6.34954 105.569 -2.15384 105.58 1.27074 96.6758C2.14981 94.3903 7.09332 92.3132 9.4683 92.087C15.2699 91.5345 20.8806 91.1652 26.7544 91.2405C40.462 91.4163 53.8433 96.771 66.8512 100.507C92.1956 107.787 118.388 113.283 144.149 118.907C174.445 125.521 205.32 129.545 235.97 134.099C250.69 136.287 270.365 138.592 282.928 147.331C292.925 154.286 290.591 165.67 290.591 176.691C290.591 180.617 291.393 183.733 291.393 187.473" stroke="#359F64" stroke-linecap="round" stroke-dasharray="6 6"/>
</svg>
