<svg width="12" height="16" viewBox="0 0 12 16" fill="none" xmlns="http://www.w3.org/2000/svg">
<path d="M6.87655 4.05359C5.85241 2.58694 4.73446 1.31638 3.10835 0.508544C2.35783 0.132079 0.755178 -0.479676 0.309562 0.641876C0.0437551 1.30853 0.356469 2.13989 0.598822 2.75949C0.739543 3.12027 0.919353 3.45752 1.1148 3.78693C1.06789 3.81046 1.06789 3.88889 1.13043 3.90457C1.15389 3.91242 1.17734 3.92026 1.19298 3.9281C1.23207 3.99085 1.27116 4.05359 1.31024 4.12418C2.09203 5.41043 2.95199 6.65747 3.85886 7.8653C4.64064 8.89273 5.47715 10.0378 6.54038 10.8221C6.88436 11.0731 7.18926 11.1907 7.61924 11.1202C8.01795 11.0496 8.36975 10.83 8.48702 10.43C8.79192 9.44959 8.01013 8.23392 7.54106 7.42609C6.83746 6.22611 5.96968 5.14377 5.20353 3.983C5.14099 3.88889 5.03935 3.86536 4.95336 3.89673C4.95336 3.8732 4.94554 3.84183 4.91427 3.82614C4.81264 3.77124 4.711 3.73203 4.59374 3.74771C4.51556 3.75556 4.45302 3.79477 4.38266 3.83399C4.3592 3.8183 4.33575 3.80261 4.31229 3.78693C4.21848 3.71634 4.09339 3.85751 4.18721 3.9281C4.21066 3.94379 4.23412 3.96732 4.25757 3.983C4.26539 3.99869 4.28102 4.01437 4.29666 4.02222C4.37484 4.10849 4.43738 4.21829 4.51556 4.29672C4.71882 4.50849 4.90645 4.72809 5.09408 4.95554C5.54751 5.51239 5.96968 6.10062 6.36057 6.69669C6.75146 7.3006 7.1189 7.92804 7.38471 8.58686C7.50979 8.90058 7.80687 9.59861 7.47852 9.88095C7.37689 9.96723 7.23617 9.95154 7.08763 9.88095C7.07981 9.86527 7.06417 9.84958 7.04072 9.84958C7.0329 9.84958 7.0329 9.84958 7.02508 9.84958C6.75928 9.70841 6.47784 9.42606 6.36839 9.3241C5.84459 8.82999 5.39116 8.25745 4.96117 7.68491C4.24975 6.75159 3.61651 5.77121 2.97544 4.79083C2.61582 4.24967 2.24839 3.71634 1.9044 3.16733C1.70895 2.85361 1.52133 2.53204 1.35715 2.21048C1.27116 2.03793 1.03662 1.63794 1.13043 1.43402C1.16171 1.35559 1.20861 1.30069 1.2477 1.24579C1.30243 1.30853 1.35715 1.37128 1.41969 1.41833C1.45878 1.44971 1.52133 1.41833 1.50569 1.36343C1.48224 1.285 1.44315 1.20657 1.39624 1.13599C1.5995 1.02618 1.85749 1.04971 2.1233 1.13599C2.17802 1.2301 2.22493 1.33206 2.29529 1.41833C2.33438 1.46539 2.41256 1.44971 2.40474 1.37912C2.40474 1.33206 2.39692 1.285 2.38129 1.23795C2.63928 1.35559 2.87381 1.50461 3.05362 1.60657C3.81977 2.06931 4.57028 2.5791 5.19571 3.21439C5.32861 3.34772 5.4537 3.48105 5.57878 3.62222C5.57878 3.64575 5.5866 3.66928 5.5866 3.68497C5.59442 3.71634 5.62569 3.72418 5.65696 3.7085C6.35275 4.53986 6.90782 5.49671 7.43943 6.43787C7.93977 7.31629 8.46357 8.17118 8.99518 9.02607C9.68315 10.1319 10.332 11.3084 10.676 12.5711C10.8558 13.2299 10.9809 14.1005 10.4415 14.6338C9.73787 15.324 8.38539 15.0103 7.71305 14.477C7.61142 14.3985 7.51761 14.3123 7.43161 14.226C7.43161 14.1868 7.43943 14.1554 7.44725 14.1162C7.44725 14.1083 7.43161 14.1005 7.43161 14.1162C7.42379 14.1476 7.41598 14.1789 7.41598 14.2103C6.78273 13.5672 6.3762 12.6731 5.93059 11.9045C5.84459 11.7554 5.75859 11.6064 5.6726 11.4652C5.6726 11.4496 5.6726 11.4339 5.68042 11.4182C5.68042 11.4025 5.65696 11.3947 5.64914 11.4103V11.4182C5.41461 11.0417 5.14099 10.6888 4.78918 10.4535C4.78136 10.3986 4.76573 10.3515 4.73446 10.3045C4.74228 10.2888 4.74228 10.2653 4.72664 10.2496C4.60937 10.1006 4.39047 10.03 4.24975 10.1868C4.21066 10.2339 4.25757 10.3045 4.31229 10.2888C4.34357 10.2809 4.36702 10.2731 4.39047 10.2731C4.51556 10.3202 4.63283 10.3908 4.74228 10.477C4.74228 10.4927 4.75009 10.5006 4.75009 10.5162C4.75009 10.5319 4.78136 10.5241 4.78136 10.5162C5.13317 10.8143 5.39116 11.2692 5.60224 11.6613C5.56315 12.0456 5.64133 12.4378 5.88368 12.7593C5.89932 12.775 5.91495 12.7829 5.93059 12.775C6.20421 13.0495 6.31366 13.4495 6.35275 13.826C5.8915 13.3162 5.47715 12.7515 5.11753 12.1633C4.711 11.4966 4.32793 10.7986 4.15594 10.0221C4.15594 10.0143 4.1403 10.0143 4.1403 10.0221C4.37484 11.6143 5.37552 13.0574 6.44656 14.2103C6.99381 14.7985 7.62706 15.3319 8.3463 15.6926C8.99518 16.0142 9.73787 16.0456 10.4415 15.9279C13.467 15.426 11.2467 11.3554 10.418 9.87311C9.31571 7.90451 8.17431 5.92023 6.87655 4.05359ZM4.42174 10.2731C4.50774 10.2574 4.5781 10.2653 4.65628 10.3359C4.6641 10.3437 4.67973 10.3515 4.69537 10.3515C4.711 10.3751 4.72664 10.4064 4.74228 10.43C4.64064 10.3672 4.53119 10.3202 4.42174 10.2731ZM3.46797 6.72806C3.60087 6.74375 3.75723 6.72806 3.8745 6.681C4.12467 7.04962 4.38265 7.41825 4.64846 7.78687C4.58592 7.78687 4.51556 7.78687 4.45302 7.77903C4.33575 7.7555 4.23412 7.70844 4.13248 7.65354C3.91358 7.33982 3.69469 7.03394 3.46797 6.72806ZM3.66341 6.35944C3.71032 6.43003 3.75723 6.50061 3.80414 6.5712C3.78068 6.57904 3.76505 6.57904 3.74159 6.58689C3.63996 6.61041 3.53833 6.61826 3.4367 6.61042C3.42106 6.61042 3.39761 6.60257 3.38197 6.60257C3.36634 6.58689 3.3507 6.56336 3.34288 6.54767C2.99108 6.05356 2.63146 5.55161 2.29529 5.04181C2.51419 5.18299 2.74091 5.29279 2.99108 5.34769C3.20998 5.68494 3.4367 6.02219 3.66341 6.35944ZM4.52338 3.9281C4.54683 3.92026 4.57028 3.90457 4.59374 3.89673C4.68755 3.86536 4.77355 3.91242 4.85173 3.95947C4.80482 4.01437 4.78136 4.0928 4.80482 4.17124C4.71882 4.08496 4.62501 4.00653 4.52338 3.9281ZM7.9085 9.62214C7.93977 9.30841 7.86159 8.98685 7.75214 8.68882C7.75214 8.69666 7.75996 8.7045 7.75996 8.71235C7.96322 9.15155 8.18994 9.67704 8.13522 10.1711C8.09613 10.5241 7.7756 10.728 7.44725 10.7594C7.48634 10.7437 7.49415 10.6809 7.43943 10.6653C7.3847 10.6574 7.32216 10.6496 7.26744 10.6339C7.22053 10.626 7.20489 10.6966 7.2518 10.7123C7.30653 10.728 7.36907 10.7437 7.42379 10.7515H7.43161C7.37689 10.7515 7.32216 10.7515 7.26744 10.7515C6.88436 10.7123 6.50911 10.3123 6.2433 10.0613C6.43093 10.0535 6.62637 10.0535 6.814 10.0221C7.29089 10.2809 7.83814 10.3672 7.9085 9.62214ZM6.2433 9.61429C6.34493 9.71625 6.49347 9.82605 6.64983 9.92801C6.48565 9.95154 6.3293 9.96723 6.16512 9.99076C5.88368 9.72409 5.61787 9.44175 5.35988 9.15155C5.44588 9.14371 5.53188 9.13587 5.61787 9.12018C5.66478 9.11234 5.66478 9.04175 5.61006 9.04175C5.50061 9.04959 5.39116 9.05744 5.28171 9.05744C5.27389 9.05744 5.27389 9.05744 5.26607 9.05744C4.92209 8.66529 4.59374 8.24961 4.27321 7.83393C4.41393 7.88883 4.57028 7.91236 4.72664 7.89667C5.19571 8.50058 5.68823 9.08881 6.2433 9.61429ZM1.29461 2.74381C1.25552 2.73596 1.22425 2.72028 1.19298 2.70459C1.06007 2.634 0.958442 2.50067 0.927171 2.35165C0.919353 2.32813 0.880264 2.33597 0.880264 2.3595C0.903717 2.59479 1.13825 2.89282 1.38842 2.90851C1.57605 3.22223 1.7715 3.49674 1.88095 3.66928C2.2093 4.17908 2.53765 4.68888 2.88163 5.19867C2.64709 5.12024 2.42038 5.02612 2.20148 4.90848C2.0373 4.6575 1.87313 4.40653 1.71677 4.14771C1.84968 4.21045 1.97476 4.26535 2.11548 4.30457C2.2093 4.3281 2.24057 4.17124 2.14675 4.15555C1.95131 4.11633 1.7715 4.02222 1.59169 3.94379C1.44315 3.70065 1.30243 3.44968 1.16171 3.1987C0.817721 2.56342 0.481554 1.73206 0.559732 1.00265C0.575368 0.853637 0.622275 0.735992 0.684818 0.641876C0.78645 0.735992 0.888082 0.830108 0.989713 0.932067C1.02098 0.963439 1.04444 0.994812 1.07571 1.03403C0.661364 1.39481 0.942806 2.11636 1.29461 2.74381ZM10.3789 14.9868C10.418 15.0417 10.4728 15.0966 10.5275 15.1436C10.3398 15.175 10.1522 15.2221 9.94896 15.2299C9.87859 15.2299 9.80823 15.2299 9.73787 15.2299C9.95677 15.1828 10.1679 15.1044 10.3789 14.9868ZM6.44656 13.9201V13.9123C6.4622 13.4731 6.32148 13.0338 5.97749 12.7437C5.97749 12.7358 5.97749 12.7201 5.96968 12.7123C5.78987 12.375 5.66478 12.0927 5.65696 11.7554C5.6726 11.7868 5.68823 11.8182 5.70387 11.8417C6.09476 12.5633 6.43093 13.3005 6.91563 13.9593C7.05636 14.1554 7.22835 14.3358 7.41598 14.5005C7.44725 14.7123 7.54888 14.8848 7.70524 15.0417C7.36125 14.7985 7.0329 14.524 6.73582 14.226C6.64201 14.124 6.5482 14.0221 6.44656 13.9201ZM10.7933 15.5907C10.5275 15.6926 10.2695 15.7475 10.0115 15.7711C10.0506 15.7318 10.035 15.6613 9.97241 15.6613C9.62842 15.6848 9.30789 15.6926 8.97173 15.6613C8.65119 15.5671 8.33848 15.426 8.0414 15.2534C8.05704 15.2377 8.05704 15.2064 8.03359 15.1985C7.73651 15.026 7.52543 14.8221 7.45506 14.5319C7.93195 14.9397 8.51047 15.2142 9.11245 15.2613C9.63624 15.4652 10.3868 15.6064 10.8402 15.2299C10.8558 15.2221 10.8636 15.2064 10.8636 15.1907C11.0122 15.1436 11.1373 15.026 11.2467 14.9162C11.278 14.8848 11.2233 14.8299 11.192 14.8691C11.0982 14.9711 10.9965 15.0809 10.8636 15.1358C10.8558 15.1123 10.8324 15.0966 10.8011 15.0966C10.7229 15.0966 10.6447 15.1123 10.5666 15.1201C10.4962 15.0809 10.4415 15.026 10.3946 14.9632C10.4024 14.9554 10.4102 14.9554 10.418 14.9554C10.848 14.7044 11.02 14.2887 11.0591 13.826C11.0669 13.8338 11.0825 13.8417 11.106 13.8338C11.3405 13.7319 11.5203 13.5436 11.6142 13.3162C11.6845 13.6142 11.7236 13.928 11.708 14.2181C11.6923 14.2181 11.6767 14.2181 11.6611 14.2338C11.5516 14.3593 11.5125 14.5162 11.3796 14.6338C11.2389 14.7515 11.0435 14.7672 10.8715 14.7828C10.8246 14.7828 10.8246 14.8613 10.8793 14.8613C11.1685 14.8691 11.5125 14.775 11.6767 14.524C11.5907 14.9946 11.3327 15.3789 10.7933 15.5907ZM9.68315 9.17508C10.3477 10.3045 11.0122 11.4339 11.4343 12.6809C11.4656 12.7672 11.4969 12.8613 11.5203 12.9476C11.3953 13.2299 11.278 13.5201 11.0669 13.7554C11.0982 13.2064 10.9418 12.6025 10.8011 12.1476C10.418 10.9554 9.78478 9.82605 9.12027 8.76725C7.9945 6.97904 7.08763 4.97122 5.68823 3.37909C5.63351 3.04184 5.41461 2.72812 5.17226 2.51636C5.16444 2.50851 5.15662 2.5242 5.16444 2.5242C5.32861 2.69675 5.4537 2.88498 5.52406 3.11243C5.53188 3.1438 5.5397 3.18301 5.54751 3.21439C5.4537 3.11243 5.3677 3.01831 5.27389 2.92419C4.73446 2.37518 4.07776 1.95166 3.42888 1.53598C3.24125 1.16736 2.88945 0.830108 2.50637 0.681091C2.4751 0.673248 2.45947 0.712463 2.48292 0.720306C2.70182 0.830108 2.86599 0.979126 3.01453 1.1752C3.05362 1.2301 3.09271 1.285 3.1318 1.34775C2.85036 1.1752 2.51419 0.971283 2.17021 0.869323C1.98258 0.673248 1.71677 0.532073 1.49005 0.4458C1.42751 0.422271 1.38061 0.508544 1.44315 0.539916C1.59169 0.610504 1.73241 0.696777 1.85749 0.806579C1.72459 0.790893 1.59169 0.798736 1.4666 0.830108C1.36497 0.853637 1.27897 0.892852 1.20861 0.932067C1.06007 0.798736 0.895899 0.681091 0.739543 0.571288C0.96626 0.335998 1.35715 0.312469 1.71677 0.36737C2.55328 0.500701 3.35852 0.900695 4.06994 1.42618C4.28884 1.78696 4.49992 2.19479 4.78918 2.48499C4.82827 2.5242 4.89863 2.47714 4.87518 2.43008C4.78136 2.19479 4.63283 1.96735 4.46865 1.7399C4.85954 2.06931 5.21916 2.43008 5.52406 2.79086C7.16581 4.73593 8.40102 6.99472 9.68315 9.17508Z" fill="#359F64"/>
<path d="M5.016 11.873C5.06291 11.9043 5.11763 11.8651 5.102 11.8181C5.07073 11.6847 4.9691 11.5749 4.94564 11.4338C4.92219 11.2612 4.99255 11.1043 5.08636 10.971C5.11763 10.924 5.05509 10.8612 5.016 10.9083C4.90655 11.0494 4.83619 11.1985 4.82056 11.371C4.82056 11.5279 4.8831 11.7788 5.016 11.873Z" fill="#359F64"/>
</svg>
