<svg width="17" height="17" viewBox="0 0 17 17" fill="none" xmlns="http://www.w3.org/2000/svg">
<path fill-rule="evenodd" clip-rule="evenodd" d="M0.653846 2.72C1.01496 2.72 1.30769 3.02444 1.30769 3.39999V10.2C1.30769 10.5755 1.01496 10.88 0.653846 10.88C0.292737 10.88 0 10.5755 0 10.2V3.39999C0 3.02444 0.292737 2.72 0.653846 2.72Z" fill="#359F64"/>
<path fill-rule="evenodd" clip-rule="evenodd" d="M8.50001 13.6013C7.41091 13.6013 6.33902 13.8839 5.38143 14.4234C4.42384 14.963 3.61081 15.7425 3.016 16.6913C2.81878 17.0059 2.41368 17.0947 2.11118 16.8895C1.80868 16.6844 1.72334 16.2631 1.92056 15.9485C2.6342 14.8102 3.60963 13.875 4.75849 13.2277C5.90736 12.5803 7.19336 12.2413 8.50001 12.2413C9.80666 12.2413 11.0927 12.5803 12.2415 13.2277C13.3904 13.875 14.3658 14.8102 15.0795 15.9485C15.2767 16.2631 15.1913 16.6844 14.8888 16.8895C14.5863 17.0947 14.1812 17.0059 13.984 16.6913C13.3892 15.7425 12.5762 14.963 11.6186 14.4234C10.661 13.8839 9.58911 13.6013 8.50001 13.6013Z" fill="#359F64"/>
<path fill-rule="evenodd" clip-rule="evenodd" d="M8.29324 0.0348953C8.42745 -0.0116318 8.57255 -0.0116318 8.70676 0.0348953L16.5529 2.75489C16.8199 2.84745 17 3.1073 17 3.39999C17 3.69269 16.8199 3.95254 16.5529 4.0451L8.70676 6.76509C8.57255 6.81162 8.42745 6.81162 8.29324 6.76509L0.447082 4.0451C0.180089 3.95254 0 3.69269 0 3.39999C0 3.1073 0.180089 2.84745 0.447082 2.75489L8.29324 0.0348953ZM2.72149 3.39999L8.5 5.40321L14.2785 3.39999L8.5 1.39678L2.72149 3.39999Z" fill="#359F64"/>
<path fill-rule="evenodd" clip-rule="evenodd" d="M5.5661 4.44543C5.83241 4.69906 5.85061 5.12919 5.60673 5.40616C5.09264 5.99003 4.75298 6.71683 4.62917 7.49796C4.50535 8.27909 4.60273 9.08082 4.90943 9.8054C5.21612 10.53 5.71889 11.1461 6.35644 11.5787C6.99399 12.0112 7.73878 12.2413 8.50001 12.2413C9.26124 12.2413 10.006 12.0112 10.6436 11.5787C11.2811 11.1461 11.7839 10.53 12.0906 9.8054C12.3973 9.08082 12.4947 8.27909 12.3708 7.49796C12.247 6.71683 11.9074 5.99003 11.3933 5.40616C11.1494 5.12919 11.1676 4.69906 11.4339 4.44543C11.7002 4.1918 12.1138 4.21072 12.3577 4.48769C13.0432 5.26618 13.496 6.23524 13.6611 7.27675C13.8262 8.31827 13.6964 9.38723 13.2874 10.3533C12.8785 11.3194 12.2082 12.1409 11.3581 12.7177C10.508 13.2945 9.51498 13.6013 8.50001 13.6013C7.48504 13.6013 6.49198 13.2945 5.64192 12.7177C4.79185 12.1409 4.1215 11.3194 3.71257 10.3533C3.30364 9.38723 3.1738 8.31827 3.33889 7.27675C3.50398 6.23524 3.95685 5.26618 4.64231 4.48769C4.88618 4.21072 5.29978 4.1918 5.5661 4.44543Z" fill="#359F64"/>
</svg>
