<svg width="22" height="29" viewBox="0 0 22 29" fill="none" xmlns="http://www.w3.org/2000/svg">
<path fill-rule="evenodd" clip-rule="evenodd" d="M8.5 2C8.10217 2 7.72064 2.15804 7.43934 2.43934C7.15804 2.72064 7 3.10218 7 3.5V7.5C7 8.05228 6.55228 8.5 6 8.5C5.44772 8.5 5 8.05228 5 7.5V3.5C5 2.57174 5.36875 1.6815 6.02513 1.02513C6.6815 0.368749 7.57174 0 8.5 0C9.42826 0 10.3185 0.368749 10.9749 1.02513C11.6313 1.6815 12 2.57174 12 3.5V12C12 12.5523 11.5523 13 11 13C10.4477 13 10 12.5523 10 12V3.5C10 3.10218 9.84196 2.72064 9.56066 2.43934C9.27936 2.15804 8.89783 2 8.5 2Z" fill="#359F64"/>
<path fill-rule="evenodd" clip-rule="evenodd" d="M4.48578 18.9064C5.23573 17.7485 7.38389 15 11.0001 15C14.6163 15 16.7645 17.7485 17.5144 18.9064L17.519 18.9134C17.7255 19.2382 17.8352 19.6151 17.8352 20C17.8352 20.3849 17.7255 20.7618 17.5189 21.0866L17.5144 21.0937C16.7645 22.2515 14.6163 25 11.0001 25C7.38389 25 5.23573 22.2515 4.48578 21.0936L4.48122 21.0866C4.2747 20.7618 4.16504 20.3849 4.16504 20C4.16504 19.6151 4.27473 19.2382 4.48125 18.9134L4.48578 18.9064ZM6.16833 19.9876C6.16618 19.9914 6.16504 19.9956 6.16504 20C6.16504 20.0044 6.16618 20.0086 6.16833 20.0124C6.84575 21.0561 8.4712 23 11.0001 23C13.5291 23 15.1545 21.056 15.8319 20.0123C15.834 20.0086 15.8352 20.0043 15.8352 20C15.8352 19.9957 15.834 19.9914 15.8319 19.9877C15.1545 18.944 13.5291 17 11.0001 17C8.4712 17 6.84575 18.9439 6.16833 19.9876Z" fill="#359F64"/>
<path fill-rule="evenodd" clip-rule="evenodd" d="M13.5 4C13.1022 4 12.7206 4.15804 12.4393 4.43934C12.158 4.72064 12 5.10218 12 5.5C12 6.05228 11.5523 6.5 11 6.5C10.4477 6.5 10 6.05228 10 5.5C10 4.57174 10.3687 3.6815 11.0251 3.02513C11.6815 2.36875 12.5717 2 13.5 2C14.4283 2 15.3185 2.36875 15.9749 3.02513C16.6313 3.6815 17 4.57174 17 5.5V13C17 13.5523 16.5523 14 16 14C15.4477 14 15 13.5523 15 13V5.5C15 5.10218 14.842 4.72064 14.5607 4.43934C14.2794 4.15804 13.8978 4 13.5 4Z" fill="#359F64"/>
<path fill-rule="evenodd" clip-rule="evenodd" d="M3.5 6C3.10218 6 2.72064 6.15804 2.43934 6.43934C2.15804 6.72064 2 7.10218 2 7.5V18C2 20.3869 2.94821 22.6761 4.63604 24.364C6.32387 26.0518 8.61305 27 11 27C13.3869 27 15.6761 26.0518 17.364 24.364C19.0518 22.6761 20 20.3869 20 18V13C20 12.6022 19.842 12.2206 19.5607 11.9393C19.2794 11.658 18.8978 11.5 18.5 11.5C18.1022 11.5 17.7206 11.658 17.4393 11.9393C17.158 12.2206 17 12.6022 17 13V13.5C17 14.0523 16.5523 14.5 16 14.5C15.4477 14.5 15 14.0523 15 13.5V13C15 12.0717 15.3687 11.1815 16.0251 10.5251C16.6815 9.86875 17.5717 9.5 18.5 9.5C19.4283 9.5 20.3185 9.86875 20.9749 10.5251C21.6313 11.1815 22 12.0717 22 13V18C22 20.9174 20.8411 23.7153 18.7782 25.7782C16.7153 27.8411 13.9174 29 11 29C8.08262 29 5.28473 27.8411 3.22183 25.7782C1.15893 23.7153 0 20.9174 0 18V7.5C0 6.57174 0.368749 5.6815 1.02513 5.02513C1.6815 4.36875 2.57174 4 3.5 4C4.42826 4 5.3185 4.36875 5.97487 5.02513C6.63125 5.6815 7 6.57174 7 7.5V13C7 13.5523 6.55228 14 6 14C5.44772 14 5 13.5523 5 13V7.5C5 7.10218 4.84196 6.72064 4.56066 6.43934C4.27936 6.15804 3.89782 6 3.5 6Z" fill="#359F64"/>
<path d="M11 21.5C11.8284 21.5 12.5 20.8284 12.5 20C12.5 19.1716 11.8284 18.5 11 18.5C10.1716 18.5 9.5 19.1716 9.5 20C9.5 20.8284 10.1716 21.5 11 21.5Z" fill="#359F64"/>
</svg>
