<svg width="41" height="41" viewBox="0 0 41 41" fill="none" xmlns="http://www.w3.org/2000/svg">
<path fill-rule="evenodd" clip-rule="evenodd" d="M10.25 0C4.58907 0 0 4.58907 0 10.25V30.75C0 36.411 4.58907 41 10.25 41H30.75C36.411 41 41 36.411 41 30.75V10.25C41 4.58907 36.411 0 30.75 0H10.25ZM20.5 13.0454C16.383 13.0454 13.0454 16.383 13.0454 20.5C13.0454 24.617 16.383 27.9546 20.5 27.9546C24.617 27.9546 27.9546 24.617 27.9546 20.5C27.9546 16.383 24.617 13.0454 20.5 13.0454ZM9.3182 20.5C9.3182 14.3245 14.3245 9.3182 20.5 9.3182C26.6755 9.3182 31.6818 14.3245 31.6818 20.5C31.6818 26.6755 26.6755 31.6818 20.5 31.6818C14.3245 31.6818 9.3182 26.6755 9.3182 20.5ZM31.6818 5.59091C29.6233 5.59091 27.9546 7.25965 27.9546 9.3182C27.9546 11.3767 29.6233 13.0454 31.6818 13.0454C33.7404 13.0454 35.4091 11.3767 35.4091 9.3182C35.4091 7.25965 33.7404 5.59091 31.6818 5.59091Z" fill="url(#paint0_linear_70_325)"/>
<defs>
<linearGradient id="paint0_linear_70_325" x1="46.3895" y1="28.6227" x2="-14.5577" y2="16.598" gradientUnits="userSpaceOnUse">
<stop stop-color="#47C54C"/>
<stop offset="0.372917" stop-color="#2F6A4E" stop-opacity="0.627083"/>
<stop offset="0.732292" stop-color="#1D4138"/>
<stop offset="1" stop-color="#3E6A60" stop-opacity="0.97"/>
</linearGradient>
</defs>
</svg>
