<svg width="15" height="21" viewBox="0 0 15 21" fill="none" xmlns="http://www.w3.org/2000/svg">
<path fill-rule="evenodd" clip-rule="evenodd" d="M10.5386 0.0772524C10.8098 0.220136 10.9556 0.530448 10.8958 0.837305L9.64592 7.25359L14.5576 9.14457C14.7707 9.22664 14.9299 9.41251 14.9819 9.64004C15.034 9.86758 14.9719 10.1068 14.8166 10.2776L5.27118 20.7776C5.0632 21.0064 4.7326 21.0656 4.46142 20.9227C4.19024 20.7799 4.04438 20.4696 4.10415 20.1627L5.35408 13.7464L0.442426 11.8554C0.229271 11.7734 0.0700714 11.5875 0.0180509 11.36C-0.0339697 11.1324 0.0280524 10.8932 0.183382 10.7224L9.72882 0.222402C9.9368 -0.0063695 10.2674 -0.0656309 10.5386 0.0772524ZM1.87611 10.9122L6.37577 12.6446C6.68876 12.7651 6.8705 13.1008 6.80494 13.4373L5.91204 18.0208L13.1239 10.0878L8.62423 8.35544C8.31124 8.23493 8.1295 7.89925 8.19506 7.56273L9.08796 2.97918L1.87611 10.9122Z" fill="#359F64"/>
</svg>
