<svg width="17" height="17" viewBox="0 0 17 17" fill="none" xmlns="http://www.w3.org/2000/svg">
<path fill-rule="evenodd" clip-rule="evenodd" d="M8.5 1.30769C4.5278 1.30769 1.30769 4.5278 1.30769 8.5C1.30769 12.4722 4.5278 15.6923 8.5 15.6923C12.4722 15.6923 15.6923 12.4722 15.6923 8.5C15.6923 4.5278 12.4722 1.30769 8.5 1.30769ZM0 8.5C0 3.80558 3.80558 0 8.5 0C13.1944 0 17 3.80558 17 8.5C17 13.1944 13.1944 17 8.5 17C3.80558 17 0 13.1944 0 8.5Z" fill="#359F64"/>
<path fill-rule="evenodd" clip-rule="evenodd" d="M6.88379 5.30814C7.09639 5.19436 7.35436 5.20683 7.555 5.34058L11.4781 7.95597C11.66 8.07723 11.7692 8.28139 11.7692 8.5C11.7692 8.71862 11.66 8.92277 11.4781 9.04403L7.555 11.6594C7.35436 11.7932 7.09639 11.8056 6.88379 11.6919C6.67118 11.5781 6.53846 11.3565 6.53846 11.1154V5.88462C6.53846 5.64348 6.67118 5.42192 6.88379 5.30814ZM7.84615 7.10634V9.89366L9.93665 8.5L7.84615 7.10634Z" fill="#359F64"/>
</svg>
