<svg width="150" height="157" viewBox="0 0 150 157" fill="none" xmlns="http://www.w3.org/2000/svg">
<g clip-path="url(#clip0_77_506)">
<path d="M148.494 87.7671C148.228 86.6979 147.342 86.1633 146.367 86.0742C147.253 67.5407 148.848 49.0963 148.317 30.5628C148.139 23.3454 146.633 16.5736 142.115 10.7819C138.393 6.05941 132.634 3.38631 127.053 1.87156C113.32 -1.78168 98.3462 0.713213 84.5246 2.67349C76.5506 3.83183 68.6652 4.72286 60.6911 5.16838C52.6285 5.52479 44.5659 5.703 36.5919 7.12865C29.3267 8.3761 22.5045 11.1383 16.8341 15.7717C10.1005 21.2961 6.29067 29.6718 3.98707 37.8693C1.06327 48.0271 0.620268 58.8977 0.886068 69.4119C0.974668 73.0651 1.15187 76.6292 1.32907 80.2825C6.67889e-05 97.8358 -1.24033 115.478 2.56947 132.764C4.25287 140.338 7.79688 146.932 14.2647 151.387C20.1123 155.397 27.7319 156.555 34.6427 156.911C50.3249 157.713 65.9185 154.505 81.6008 154.595C97.5488 154.773 115.003 156.198 130.242 150.852C141.229 147.021 146.367 137.665 148.317 126.616C149.468 120.023 149.823 113.429 149.823 106.746C150 100.42 150.089 94.0044 148.494 87.7671ZM94.7136 5.16838C107.826 3.65362 124.129 1.96066 135.558 9.97995C147.253 18.1775 144.684 36.2654 144.33 48.4726C143.887 64.8676 142.38 81.1735 141.937 97.4794C133.52 97.123 125.103 97.123 116.686 97.123C116.421 93.5588 115.8 90.0838 115.092 86.5197C114.471 83.4011 113.585 79.926 114.826 76.8965C116.775 72.2632 121.471 70.7484 125.989 69.9465C131.217 68.9663 136.444 68.4317 141.672 67.6298C142.735 67.4516 142.735 65.5804 141.672 65.4022C132.014 63.7983 119.699 62.64 112.079 69.7683C111.813 69.3228 111.636 68.9663 111.37 68.5208C115.269 63.3528 119.256 58.2739 123.42 53.2842C123.686 53.0168 123.243 52.5713 122.977 52.8386C118.724 57.6502 114.737 62.64 110.75 67.6298C109.155 65.224 107.206 62.9964 105.523 60.6797C104.282 58.8977 102.953 57.1156 101.713 55.3335C106.497 49.0072 111.282 42.5918 115.8 36.0872C120.939 42.1462 125.635 48.9181 131.305 54.5316C131.66 54.888 132.28 54.4425 132.014 53.997C128.027 47.5815 122.268 42.0571 117.307 36.3545C116.952 35.9981 116.686 35.6417 116.332 35.2853C119.522 30.6519 122.711 26.0185 125.724 21.2961C132.28 27.8897 134.849 37.7802 140.874 44.9084C141.317 45.4431 142.026 44.7302 141.76 44.1956C138.836 39.0276 135.913 33.9487 132.723 28.959C130.862 25.9294 128.736 23.0781 126.167 20.5832C127.761 18.0884 129.268 15.5935 130.774 13.0986C131.04 12.6531 130.331 12.2075 130.065 12.6531C128.559 15.1479 127.053 17.5537 125.458 19.9595C124.395 19.0685 123.331 18.1775 122.091 17.4646C121.737 17.2864 121.471 17.7319 121.825 17.9101C123.066 18.7121 124.129 19.514 125.103 20.4941C122.091 25.2166 118.901 29.7609 115.623 34.3943C110.927 29.1372 106.232 23.9692 101.536 18.7121C101.27 18.4448 100.916 18.8012 101.093 19.1576C105.7 24.5038 110.396 29.85 115.003 35.1962C110.396 41.6116 105.611 47.938 100.827 54.1752C99.6752 52.5713 98.5234 50.8784 97.3716 49.2745C92.9416 42.9482 88.9546 36.3545 85.4992 29.4936C88.3344 25.2166 91.2582 20.9397 94.2706 16.7518C94.5364 16.3954 93.9162 16.039 93.6504 16.3954C90.638 20.3159 87.8028 24.4147 84.9676 28.5134C84.3474 27.3551 83.8158 26.1077 83.2842 24.9493C83.107 24.682 82.664 24.8602 82.7526 25.1275C83.2842 26.4641 83.9044 27.8006 84.5246 29.1372C79.8288 35.9981 75.3988 43.0373 71.0574 50.1655C68.3994 45.2649 65.5641 40.0969 62.9947 34.8398C67.0704 28.6916 70.7916 22.3653 73.7154 15.5935C73.804 15.3262 73.4496 15.1479 73.361 15.4153C70.3486 22.0089 66.6273 28.0679 62.4631 33.8596C61.3113 31.3647 60.1595 28.959 59.0963 26.375C59.0963 26.2859 58.9191 26.375 59.0077 26.4641C59.9823 29.1372 61.0455 31.8103 62.1973 34.3943C56.6155 42.2353 50.3249 49.6309 44.1229 57.1156C41.1105 52.6604 38.2753 47.938 36.0603 43.0373C44.5659 31.0083 53.7803 19.514 63.7921 8.64341C66.8932 8.4652 69.9056 8.28699 73.0066 8.01968C80.2718 7.30686 87.4484 5.97031 94.7136 5.16838ZM45.0975 131.517C41.2877 125.814 37.6551 119.844 34.1997 113.874C33.9339 113.518 33.7567 113.072 33.4909 112.716C36.9463 108.083 40.3131 103.36 43.5027 98.5486C47.1353 104.162 51.2995 109.419 55.3751 114.765C54.5777 116.013 53.6917 117.26 52.8943 118.597C50.3249 122.696 47.3125 126.973 45.0975 131.517ZM72.032 51.5912C76.2848 44.3738 80.6262 37.3347 85.1448 30.2955C88.1572 36.7109 91.524 42.9482 95.3338 49.0072C96.7514 51.3239 98.2576 53.5515 99.7638 55.779C95.1566 61.749 90.4608 67.6298 85.8536 73.5106C81.1578 66.2932 76.462 59.0759 72.032 51.5912ZM85.0562 74.669C80.3604 80.6389 75.7532 86.6088 71.146 92.6678C69.817 90.9749 68.5766 89.2819 67.2476 87.5889C64.1466 83.6684 60.9569 79.7478 57.8559 75.8273C62.4632 68.1644 66.8932 60.4124 71.4118 52.7495C75.6646 60.1451 80.2718 67.4516 85.0562 74.669ZM56.7927 74.4907C53.1601 69.8574 49.6161 65.1349 46.2493 60.3233C45.8063 59.6996 45.3633 59.0759 45.0089 58.4521C45.4519 57.9175 45.8949 57.3829 46.3379 56.8483C51.9197 49.8982 57.5901 42.8591 62.6403 35.4635C65.0325 40.8988 67.7792 46.245 70.703 51.413C66.0072 59.0759 61.3999 66.8279 56.7927 74.4907ZM55.9953 75.8273C52.0083 82.4209 47.8441 89.0146 43.5913 95.43C39.3385 89.1037 35.3515 82.51 31.4531 75.9164C35.4401 70.3029 39.7815 64.9567 44.1229 59.6105C47.6669 65.224 51.8311 70.6593 55.9953 75.8273ZM30.5671 74.4907C28.0863 70.3029 25.6941 66.2041 23.2133 62.0163C27.2003 55.779 31.3645 49.72 35.6173 43.661C37.5665 48.6508 40.2245 53.5515 43.1483 58.1848C38.8069 63.6201 34.5541 68.9663 30.5671 74.4907ZM29.8583 75.4709C29.4153 76.0946 29.0609 76.6292 28.6179 77.1638C26.3143 80.5498 24.0993 84.0248 22.1501 87.5889C21.6185 88.48 21.0869 89.4601 20.4667 90.5293C17.9859 86.4306 15.5051 82.4209 12.9357 78.4113C16.1253 73.1542 19.4035 67.8971 22.7703 62.7291C25.0739 67.0061 27.4661 71.283 29.8583 75.4709ZM23.4791 88.48C25.4283 84.9158 27.6433 81.4408 29.9469 78.0549C30.2127 77.6985 30.3899 77.342 30.6557 76.9856C34.4655 83.7575 38.3639 90.4402 42.5281 96.9448C39.3385 101.756 35.9717 106.39 32.5163 111.023C28.8837 104.786 25.2511 98.5486 21.5299 92.4005C22.1501 91.0639 22.7703 89.7274 23.4791 88.48ZM46.1607 99.2615C45.6291 98.5486 45.0975 97.7467 44.5659 97.0339C48.8187 90.5293 52.9829 83.8466 56.9699 77.1638C59.5393 80.3716 62.0201 83.4902 64.501 86.5197C66.4502 89.0146 68.3108 91.4204 70.1714 93.9153C68.045 96.7666 65.9186 99.707 63.7921 102.558C61.3113 106.122 58.8305 109.687 56.4383 113.251C52.8943 108.706 49.5275 103.984 46.1607 99.2615ZM65.387 103.538C67.3362 100.776 69.2854 98.1031 71.2346 95.43C74.5128 99.8852 77.7024 104.519 80.6262 109.241C79.2086 111.201 77.8796 113.162 76.462 115.122C73.4496 119.399 70.26 123.587 67.159 127.864C66.3616 126.705 65.5641 125.636 64.7667 124.567C62.3745 121.359 59.9823 118.151 57.5901 114.944C60.0709 111.112 62.729 107.281 65.387 103.538ZM72.2978 94.0935C76.8164 88.0344 81.4236 82.0645 86.0308 76.0946C87.0054 77.5203 87.98 79.035 88.9546 80.4607C90.9038 83.4011 92.853 86.3415 94.8022 89.2819C93.739 90.7075 92.7644 92.1332 91.7012 93.6479C88.3344 98.3704 85.0562 103.004 81.778 107.726C78.677 103.093 75.576 98.5486 72.2978 94.0935ZM90.8152 80.9062C89.4862 78.9459 88.1572 76.9856 86.8282 74.9363C87.3598 74.2234 87.8914 73.5106 88.423 72.7978C92.4986 67.5407 96.5742 62.2836 100.65 56.9374C101.536 58.1848 102.333 59.3432 103.219 60.5015C105.257 63.2637 107.206 66.5605 109.598 69.2336C104.814 75.3818 100.207 81.619 95.6882 87.8562C94.0934 85.6287 92.4986 83.2229 90.8152 80.9062ZM10.0119 136.596C5.05027 126.171 4.69587 112.894 4.43007 101.578C4.34147 97.5685 4.34147 93.4697 4.34147 89.4601C5.05027 71.7285 2.92387 53.8188 8.23988 36.5327C10.9865 27.6224 16.1253 19.7813 24.2765 15.1479C31.2759 11.1383 39.6929 10.1582 47.5783 9.62354C52.7171 9.26713 57.9445 9.08892 63.0833 8.82161C52.9829 18.9794 43.7685 29.9391 35.3515 41.4334C34.1111 38.5821 33.1365 35.5526 32.5163 32.5231C32.5163 32.434 32.3391 32.434 32.4277 32.5231C33.0479 35.7308 33.9339 38.9385 34.9971 41.968C30.5671 47.938 26.3143 54.0861 22.2387 60.3233C18.6061 54.1752 14.7963 48.1162 10.8093 42.1462C10.7207 41.968 10.4549 42.1462 10.5435 42.3245C14.5305 48.4726 18.1631 54.7098 21.7957 61.0361C18.4289 66.2041 15.0621 71.4612 11.7839 76.7183C11.0751 75.6491 10.4549 74.6689 9.74608 73.5997C9.56888 73.3324 9.03728 73.5997 9.21448 73.867C9.92328 75.0254 10.7207 76.0946 11.4295 77.2529C9.30308 80.728 7.08808 84.2921 4.96167 87.8562C4.34147 88.9255 6.02487 89.9947 6.64508 88.8364C8.59428 85.5395 10.5435 82.3318 12.5813 79.035C15.1507 83.0447 17.6315 87.1434 20.0237 91.3313C18.8719 93.4697 17.8087 95.7864 17.5429 98.014C17.5429 98.3704 18.0745 98.5486 18.2517 98.2813C19.4921 96.8557 20.3781 95.0736 21.1755 93.2024C24.8081 99.4397 28.2635 105.677 31.8075 111.914C29.5925 114.855 27.2003 117.706 24.8967 120.557C24.2765 119.666 23.5677 118.775 22.9475 117.884C19.7579 113.607 15.6823 109.865 10.8093 107.548C10.5435 107.459 10.3663 107.815 10.6321 107.904C16.5683 111.38 20.2895 116.637 23.6563 122.072C22.4159 123.587 21.0869 125.012 19.7579 126.438C18.9605 127.329 20.2895 128.666 21.0869 127.775C22.3273 126.438 23.4791 125.101 24.7195 123.765C27.0231 127.596 29.3267 131.428 32.1619 134.814C32.6049 135.348 33.3137 134.635 33.0479 134.101C31.2759 129.913 28.7065 125.903 26.0485 122.072C28.4407 119.31 30.6557 116.458 32.8707 113.607C33.0479 113.874 33.1365 114.142 33.3137 114.32C36.9463 120.557 40.5789 126.794 44.5659 132.853C44.3887 133.299 44.2115 133.744 44.0343 134.19C43.6799 134.992 44.9203 135.348 45.3633 134.725C45.4519 134.635 45.5405 134.457 45.6291 134.368C48.9073 139.447 52.4513 144.704 56.5269 149.159C54.1347 149.338 51.8311 149.605 49.4389 149.783C34.8199 151.03 17.2771 151.654 10.0119 136.596ZM57.9445 149.159C54.2233 143.813 49.9705 138.645 46.2493 133.299C49.2617 128.933 51.6539 124.032 54.4891 119.577C55.1979 118.508 55.9067 117.439 56.5269 116.369C59.8051 120.646 63.0833 124.923 66.0071 129.378C64.2352 131.784 62.5518 134.279 61.0455 136.774C60.7797 137.219 61.3999 137.665 61.7543 137.309C63.7035 135.348 65.4756 133.21 67.159 131.071C70.6144 136.418 73.5382 142.031 75.6646 148.09C75.6646 148.09 75.6646 148.179 75.7532 148.179C74.8672 148.179 73.8926 148.179 73.0066 148.268C67.9564 148.268 62.9062 148.714 57.9445 149.159ZM76.2848 148.09C76.2848 148.001 76.2848 148.001 76.2848 147.912C75.8418 141.229 72.2092 135.081 68.3108 129.467C71.0574 125.814 73.7154 122.072 76.2848 118.419C78.0568 115.924 79.8288 113.429 81.6008 110.934C82.1324 111.825 82.664 112.627 83.107 113.518C85.8536 118.24 88.5116 123.052 91.2582 127.864C90.9924 128.22 90.7266 128.487 90.4608 128.844C86.7396 133.655 82.7526 138.467 80.2718 144.08C80.006 144.704 80.7148 145.15 81.1578 144.615C84.7904 139.447 88.0686 134.012 91.7012 128.755C94.3592 133.477 97.1944 138.11 100.207 142.566C99.498 143.368 98.8778 144.17 98.2576 144.971C97.3716 146.041 96.4856 147.11 95.7768 148.357C89.309 148.268 82.8412 148.001 76.2848 148.09ZM99.055 148.268C99.6752 147.288 100.295 146.308 100.916 145.417C101.181 145.061 101.447 144.704 101.713 144.437C102.599 145.773 103.574 147.021 104.548 148.268C102.688 148.268 100.827 148.357 99.055 148.268ZM138.925 136.863C135.381 143.1 128.647 145.328 122.002 146.664C116.952 147.645 111.813 148.09 106.586 148.179C105.434 146.219 104.282 144.348 103.131 142.387C104.548 140.605 105.966 138.912 107.295 137.13C111.282 131.873 114.471 126.705 114.737 119.933C114.737 119.844 114.649 119.844 114.56 119.933C113.054 126.794 108.624 132.497 104.194 137.754C103.396 138.645 102.599 139.625 101.89 140.516C99.055 135.883 96.1312 131.25 93.2074 126.616C96.4856 122.072 99.6752 117.528 102.599 112.716C102.688 112.627 102.51 112.538 102.51 112.627C99.498 117.171 96.1312 121.537 92.7644 125.814C90.4608 122.161 88.2458 118.508 86.0308 114.855C84.9676 112.983 83.8158 111.112 82.664 109.33C85.5878 105.142 88.423 100.954 91.2582 96.7666C92.6758 94.7172 94.0934 92.5787 95.511 90.5293C99.7638 96.8557 104.017 103.093 108.269 109.419C113.497 117.26 118.37 125.28 123.42 133.21C121.116 136.774 118.547 140.16 116.509 143.902C116.155 144.526 116.952 145.15 117.484 144.704C120.23 142.209 122.8 139.002 124.838 135.527C125.192 136.15 125.635 136.685 125.989 137.309C126.521 138.111 127.761 137.398 127.318 136.507C126.875 135.526 126.344 134.635 125.812 133.655C127.761 130.002 129.09 126.082 129.533 122.25C129.622 121.805 128.825 121.715 128.736 122.161C127.761 125.458 126.255 128.487 124.572 131.25C120.23 123.765 115.269 116.637 110.484 109.597C105.877 102.736 101.181 95.9646 96.4856 89.1037C100.916 82.5991 105.523 76.1837 110.219 69.9465C110.484 70.2138 110.75 70.4811 111.016 70.7484C110.839 71.0157 110.573 71.283 110.396 71.5503C104.017 79.5696 110.041 91.3313 110.13 100.42C110.13 102.291 111.636 103.806 113.497 103.806C122.977 103.806 132.369 103.895 141.849 103.449C141.849 104.073 141.849 104.608 141.849 105.231C141.849 106.39 142.558 107.013 143.444 107.103C143.532 108.706 143.621 110.399 143.621 112.003C143.621 120.557 143.178 129.467 138.925 136.863Z" fill="#359F64"/>
<path d="M134.141 76.5403C132.103 76.8076 129.268 76.8967 127.053 77.7878C126.698 77.6987 126.344 77.8769 126.078 78.2333C125.192 78.6788 124.395 79.3025 123.863 80.1045C121.825 83.134 124.572 87.0545 126.167 89.5494C126.787 90.5296 128.116 90.9751 129.179 90.3513C130.331 89.6385 131.571 88.7475 132.369 87.6782C132.9 87.2327 133.432 86.8763 133.786 86.3417C135.381 84.3814 135.735 81.7083 136.178 79.3025C136.444 78.0551 135.647 76.3621 134.141 76.5403ZM129.179 84.5596C129.09 84.8269 128.913 85.0051 128.736 85.2725C128.47 84.2032 128.382 83.134 128.204 82.0647C128.382 81.9756 128.559 81.8865 128.736 81.8865C128.825 82.332 129.002 82.7776 129.002 83.134C129.179 83.6686 129.356 84.025 129.179 84.5596Z" fill="#359F64"/>
</g>
<defs>
<clipPath id="clip0_77_506">
<rect width="150" height="157" fill="white"/>
</clipPath>
</defs>
</svg>
